<?xml version="1.0" encoding="utf-8" standalone="no"?>
<!DOCTYPE svg PUBLIC "-//W3C//DTD SVG 1.1//EN"
  "http://www.w3.org/Graphics/SVG/1.1/DTD/svg11.dtd">
<!-- Created with matplotlib (https://matplotlib.org/) -->
<svg height="345.6pt" version="1.1" viewBox="0 0 460.8 345.6" width="460.8pt" xmlns="http://www.w3.org/2000/svg" xmlns:xlink="http://www.w3.org/1999/xlink">
 <defs>
  <style type="text/css">
*{stroke-linecap:butt;stroke-linejoin:round;}
  </style>
 </defs>
 <g id="figure_1">
  <g id="patch_1">
   <path d="M 0 345.6 
L 460.8 345.6 
L 460.8 0 
L 0 0 
z
" style="fill:#ffffff;"/>
  </g>
  <g id="axes_1">
   <g id="patch_2">
    <path d="M 57.6 307.584 
L 414.72 307.584 
L 414.72 41.472 
L 57.6 41.472 
z
" style="fill:#ffffff;"/>
   </g>
   <g id="PolyCollection_1">
    <path clip-path="url(#p8da5c37a28)" d="M 73.832727 211.488 
L 73.832727 211.488 
L 75.464157 211.488 
L 77.095587 208.128 
L 78.727017 161.256 
L 80.358447 175.788 
L 81.989877 195.696 
L 83.621307 161.592 
L 85.252736 193.008 
L 86.884166 177.72 
L 88.515596 196.704 
L 90.147026 197.88 
L 91.778456 204.18 
L 93.409886 186.96 
L 95.041316 152.688 
L 96.672746 189.648 
L 98.304175 155.712 
L 99.935605 176.88 
L 101.567035 196.704 
L 103.198465 168.312 
L 104.829895 173.856 
L 106.461325 188.64 
L 108.092755 176.544 
L 109.724185 188.304 
L 111.355614 195.36 
L 112.987044 163.776 
L 114.618474 162.012 
L 116.249904 170.16 
L 117.881334 157.056 
L 119.512764 196.032 
L 121.144194 182.928 
L 122.775624 182.592 
L 124.407053 178.56 
L 126.038483 185.952 
L 127.669913 180.576 
L 129.301343 192.336 
L 130.932773 180.408 
L 132.564203 160.5 
L 134.195633 181.416 
L 135.827063 157.056 
L 137.458492 158.4 
L 139.089922 161.424 
L 140.721352 182.424 
L 142.352782 176.796 
L 143.984212 189.06 
L 145.615642 152.016 
L 147.247072 166.8 
L 148.878502 198.636 
L 150.509931 186.372 
L 152.141361 160.836 
L 153.772791 177.636 
L 155.404221 182.592 
L 157.035651 178.644 
L 158.667081 172.848 
L 160.298511 144.3846 
L 161.929941 179.904 
L 163.56137 164.448 
L 165.1928 148.656 
L 166.82423 174.528 
L 168.45566 159.408 
L 170.08709 145.9554 
L 171.71852 177.972 
L 173.34995 152.016 
L 174.98138 159.66 
L 176.61281 179.148 
L 178.244239 155.04 
L 179.875669 165.204 
L 181.507099 146.556 
L 183.138529 166.044 
L 184.769959 175.189043 
L 186.401389 178.98 
L 188.032819 155.712 
L 189.664249 167.052 
L 191.295678 145.968 
L 192.927108 160.08 
L 194.558538 163.44 
L 196.189968 160.836 
L 197.821398 174.024 
L 199.452828 147.648 
L 201.084258 152.352 
L 202.715688 150 
L 204.347117 146.304 
L 205.978547 149.076 
L 207.609977 174.276 
L 209.241407 166.884 
L 210.872837 150.336 
L 212.504267 146.388 
L 214.135697 155.292 
L 215.767127 149.376462 
L 217.398556 187.212 
L 219.029986 195.36 
L 220.661416 161.928 
L 222.292846 163.02 
L 223.924276 176.628 
L 225.555706 173.436 
L 227.187136 182.592 
L 228.818566 198.384 
L 230.449995 154.452 
L 232.081425 178.308 
L 233.712855 184.272 
L 235.344285 187.296 
L 236.975715 153.024 
L 238.607145 159.828 
L 240.238575 151.3356 
L 241.870005 153.864 
L 243.501434 167.304 
L 245.132864 173.184 
L 246.764294 150.84 
L 248.395724 160.836 
L 250.027154 197.712 
L 251.658584 171.504 
L 253.290014 172.008 
L 254.921444 146.892 
L 256.552873 168.48 
L 258.184303 166.128 
L 259.815733 153.696 
L 261.447163 182.256 
L 263.078593 178.308 
L 264.710023 170.244 
L 266.341453 165.792 
L 267.972883 150.756 
L 269.604312 161.088 
L 271.235742 181.416 
L 272.867172 172.092 
L 274.498602 151.344 
L 276.130032 167.892 
L 277.761462 154.368 
L 279.392892 184.272 
L 281.024322 147.648 
L 282.655751 169.572 
L 284.287181 179.904 
L 285.918611 188.808 
L 287.550041 143.616 
L 289.181471 148.824 
L 290.812901 172.512 
L 292.444331 188.672 
L 294.075761 194.688 
L 295.70719 148.86768 
L 297.33862 196.452 
L 298.97005 181.584 
L 300.60148 159.6236 
L 302.23291 177.552 
L 303.86434 181.248 
L 305.49577 171.168 
L 307.1272 206.448 
L 308.75863 168.7415 
L 310.390059 161.928 
L 312.021489 185.28 
L 313.652919 141.486783 
L 315.284349 186.708 
L 316.915779 195.024 
L 318.547209 182.424 
L 320.178639 165.456 
L 321.810069 168.71625 
L 323.441498 145.831043 
L 325.072928 172.932 
L 326.704358 158.988 
L 328.335788 146.808 
L 329.967218 148.749 
L 331.598648 179.148 
L 333.230078 150.0588 
L 334.861508 174.864 
L 336.492937 168.144 
L 338.124367 151.344 
L 339.755797 154.032 
L 341.387227 139.4454 
L 343.018657 142.776 
L 344.650087 154.704 
L 346.281517 164.112 
L 347.912947 165.12 
L 349.544376 146.472 
L 351.175806 133.2 
L 352.807236 155.474824 
L 354.438666 145.475351 
L 356.070096 181.584 
L 357.701526 186.624 
L 359.332956 153.024 
L 360.964386 186.708 
L 362.595815 166.764632 
L 364.227245 150.336 
L 365.858675 162.264 
L 367.490105 171.756 
L 369.121535 165.204 
L 370.752965 147.984 
L 372.384395 189.396 
L 374.015825 164.67 
L 375.647254 156.72 
L 377.278684 151.512 
L 378.910114 169.669684 
L 380.541544 170.664 
L 382.172974 146.127206 
L 383.804404 175.2 
L 385.435834 138.24 
L 387.067264 180.576 
L 388.698693 162.6 
L 390.330123 156.384 
L 391.961553 176.208 
L 393.592983 142.335737 
L 395.224413 157.392 
L 396.855843 164.784 
L 398.487273 144.616585 
L 398.487273 58.608 
L 398.487273 58.608 
L 396.855843 65.244 
L 395.224413 89.52 
L 393.592983 81.12 
L 391.961553 77.76 
L 390.330123 113.712 
L 388.698693 75.552 
L 387.067264 131.016 
L 385.435834 89.184 
L 383.804404 71.376 
L 382.172974 85.508 
L 380.541544 66.168 
L 378.910114 65.244 
L 377.278684 73.056 
L 375.647254 86.16 
L 374.015825 76.02288 
L 372.384395 70.8864 
L 370.752965 68.352 
L 369.121535 89.1 
L 367.490105 114.3 
L 365.858675 57.936 
L 364.227245 73.056 
L 362.595815 87.168 
L 360.964386 68.856 
L 359.332956 88.428 
L 357.701526 85.404 
L 356.070096 135.216 
L 354.438666 94.56 
L 352.807236 73.308 
L 351.175806 88.848 
L 349.544376 82.8 
L 347.912947 115.392 
L 346.281517 94.14 
L 344.650087 72.048 
L 343.018657 85.824 
L 341.387227 78.096 
L 339.755797 70.704 
L 338.124367 71.964 
L 336.492937 109.26 
L 334.861508 72.972 
L 333.230078 85.068 
L 331.598648 81.792 
L 329.967218 96.492 
L 328.335788 83.724 
L 326.704358 86.664 
L 325.072928 97.08 
L 323.441498 70.704 
L 321.810069 127.488 
L 320.178639 119.34 
L 318.547209 124.464 
L 316.915779 133.704 
L 315.284349 88.764 
L 313.652919 81.12 
L 312.021489 85.152 
L 310.390059 74.064 
L 308.75863 89.604 
L 307.1272 81.792 
L 305.49577 139.836 
L 303.86434 128.664 
L 302.23291 117.66 
L 300.60148 114.3 
L 298.97005 132.486 
L 297.33862 98.592 
L 295.70719 73.644 
L 294.075761 138.576 
L 292.444331 127.74 
L 290.812901 127.488 
L 289.181471 107.748 
L 287.550041 70.872 
L 285.918611 127.608522 
L 284.287181 133.6704 
L 282.655751 81.204 
L 281.024322 73.8855 
L 279.392892 109.428 
L 277.761462 91.284 
L 276.130032 101.196 
L 274.498602 101.952 
L 272.867172 84.051 
L 271.235742 134.208 
L 269.604312 111.948 
L 267.972883 78.6 
L 266.341453 122.028 
L 264.710023 107.748 
L 263.078593 134.298462 
L 261.447163 78.7932 
L 259.815733 82.464 
L 258.184303 128.16 
L 256.552873 111.612 
L 254.921444 81.548 
L 253.290014 101.364 
L 251.658584 119.424 
L 250.027154 127.176 
L 248.395724 101.868 
L 246.764294 96.912 
L 245.132864 88.512 
L 243.501434 85.488707 
L 241.870005 89.436 
L 240.238575 86.278188 
L 238.607145 116.652 
L 236.975715 105.228 
L 235.344285 124.968 
L 233.712855 90.1374 
L 232.081425 115.896 
L 230.449995 84.984 
L 228.818566 96.24 
L 227.187136 108.084 
L 225.555706 125.892 
L 223.924276 132.108 
L 222.292846 82.8 
L 220.661416 118.08 
L 219.029986 114.4638 
L 217.398556 118.5 
L 215.767127 90.36 
L 214.135697 80.868 
L 212.504267 77.223692 
L 210.872837 75.603785 
L 209.241407 116.316 
L 207.609977 127.824 
L 205.978547 75.324 
L 204.347117 84.411273 
L 202.715688 75.084 
L 201.084258 83.28 
L 199.452828 79.608 
L 197.821398 111.024 
L 196.189968 90.192 
L 194.558538 115.14 
L 192.927108 83.052 
L 191.295678 71.2908 
L 189.664249 72.864 
L 188.032819 79.8075 
L 186.401389 132.227269 
L 184.769959 122.653333 
L 183.138529 126.375 
L 181.507099 99.852 
L 179.875669 124.8 
L 178.244239 102.96 
L 176.61281 125.3418 
L 174.98138 110.688 
L 173.34995 77.9742 
L 171.71852 112.956 
L 170.08709 99.096 
L 168.45566 120.012 
L 166.82423 127.0365 
L 165.1928 102.288 
L 163.56137 102.54 
L 161.929941 107.916 
L 160.298511 112.032 
L 158.667081 121.44 
L 157.035651 114.552 
L 155.404221 112.431 
L 153.772791 116.064 
L 152.141361 124.464 
L 150.509931 127.488 
L 148.878502 95.736 
L 147.247072 102.158595 
L 145.615642 82.5606 
L 143.984212 127.036728 
L 142.352782 116.3685 
L 140.721352 124.716 
L 139.089922 126.102382 
L 137.458492 116.828 
L 135.827063 83.804 
L 134.195633 121.776 
L 132.564203 120.684 
L 130.932773 127.488 
L 129.301343 124.227273 
L 127.669913 116.316 
L 126.038483 133.704 
L 124.407053 129.42 
L 122.775624 127.74 
L 121.144194 120.852 
L 119.512764 108.84 
L 117.881334 122.196 
L 116.249904 121.44 
L 114.618474 114.2916 
L 112.987044 127.992 
L 111.355614 122.8848 
L 109.724185 124.162759 
L 108.092755 122.097 
L 106.461325 126.812889 
L 104.829895 111.612 
L 103.198465 121.80288 
L 101.567035 131.016 
L 99.935605 130.1095 
L 98.304175 125.976 
L 96.672746 127.488 
L 95.041316 115.556 
L 93.409886 127.488 
L 91.778456 127.824 
L 90.147026 130.4868 
L 88.515596 127.488 
L 86.884166 124.5042 
L 85.252736 136.896 
L 83.621307 127.488 
L 81.989877 127.488 
L 80.358447 131.772 
L 78.727017 130.176 
L 77.095587 127.872 
L 75.464157 127.8744 
L 73.832727 211.488 
z
" style="fill:#1f77b4;fill-opacity:0.2;"/>
   </g>
   <g id="PolyCollection_2">
    <path clip-path="url(#p8da5c37a28)" d="M 73.832727 127.488 
L 73.832727 251.136 
L 75.464157 253.152 
L 77.095587 241.728 
L 78.727017 211.488 
L 80.358447 211.488 
L 81.989877 224.256 
L 83.621307 211.488 
L 85.252736 211.488 
L 86.884166 211.488 
L 88.515596 211.488 
L 90.147026 211.488 
L 91.778456 211.488 
L 93.409886 211.488 
L 95.041316 214.512 
L 96.672746 227.952 
L 98.304175 244.08 
L 99.935605 229.296 
L 101.567035 225.6 
L 103.198465 226.272 
L 104.829895 211.488 
L 106.461325 294.144 
L 108.092755 294.816 
L 109.724185 261.552 
L 111.355614 271.296 
L 112.987044 247.776 
L 114.618474 211.488 
L 116.249904 267.6 
L 117.881334 211.488 
L 119.512764 214.512 
L 121.144194 220.224 
L 122.775624 211.488 
L 124.407053 214.848 
L 126.038483 231.312 
L 127.669913 258.864 
L 129.301343 240.72 
L 130.932773 211.488 
L 132.564203 253.488 
L 134.195633 256.512 
L 135.827063 249.12 
L 137.458492 248.784 
L 139.089922 236.352 
L 140.721352 244.416 
L 142.352782 243.408 
L 143.984212 273.312 
L 145.615642 240.72 
L 147.247072 292.464 
L 148.878502 289.104 
L 150.509931 238.704 
L 152.141361 219.552 
L 153.772791 217.536 
L 155.404221 222.912 
L 157.035651 211.488 
L 158.667081 257.856 
L 160.298511 211.488 
L 161.929941 282.384 
L 163.56137 264.24 
L 165.1928 211.488 
L 166.82423 241.056 
L 168.45566 214.512 
L 170.08709 211.488 
L 171.71852 259.536 
L 173.34995 248.112 
L 174.98138 241.728 
L 176.61281 221.568 
L 178.244239 211.488 
L 179.875669 211.488 
L 181.507099 230.64 
L 183.138529 211.488 
L 184.769959 239.376 
L 186.401389 255.84 
L 188.032819 257.184 
L 189.664249 218.544 
L 191.295678 284.736 
L 192.927108 267.936 
L 194.558538 217.2 
L 196.189968 233.664 
L 197.821398 252.48 
L 199.452828 211.488 
L 201.084258 222.912 
L 202.715688 209.808 
L 204.347117 211.488 
L 205.978547 225.6 
L 207.609977 220.896 
L 209.241407 242.064 
L 210.872837 241.392 
L 212.504267 230.64 
L 214.135697 231.312 
L 215.767127 213.84 
L 217.398556 223.92 
L 219.029986 286.416 
L 220.661416 223.248 
L 222.292846 211.488 
L 223.924276 224.256 
L 225.555706 275.664 
L 227.187136 221.904 
L 228.818566 287.088 
L 230.449995 276.336 
L 232.081425 248.112 
L 233.712855 249.456 
L 235.344285 216.528 
L 236.975715 237.024 
L 238.607145 286.08 
L 240.238575 211.488 
L 241.870005 247.104 
L 243.501434 240.72 
L 245.132864 244.08 
L 246.764294 258.192 
L 248.395724 210.816 
L 250.027154 242.4 
L 251.658584 211.488 
L 253.290014 242.736 
L 254.921444 232.32 
L 256.552873 211.488 
L 258.184303 251.808 
L 259.815733 232.992 
L 261.447163 211.488 
L 263.078593 211.488 
L 264.710023 232.32 
L 266.341453 230.64 
L 267.972883 229.968 
L 269.604312 283.392 
L 271.235742 259.536 
L 272.867172 211.488 
L 274.498602 211.488 
L 276.130032 212.16 
L 277.761462 211.488 
L 279.392892 292.464 
L 281.024322 231.984 
L 282.655751 278.016 
L 284.287181 278.688 
L 285.918611 292.128 
L 287.550041 245.76 
L 289.181471 295.488 
L 290.812901 295.488 
L 292.444331 211.488 
L 294.075761 290.448 
L 295.70719 278.016 
L 297.33862 292.8 
L 298.97005 281.04 
L 300.60148 272.976 
L 302.23291 262.56 
L 303.86434 278.016 
L 305.49577 211.488 
L 307.1272 213.84 
L 308.75863 211.488 
L 310.390059 227.28 
L 312.021489 240.048 
L 313.652919 209.808 
L 315.284349 244.416 
L 316.915779 227.28 
L 318.547209 220.896 
L 320.178639 213.84 
L 321.810069 230.976 
L 323.441498 293.136 
L 325.072928 262.224 
L 326.704358 211.488 
L 328.335788 211.488 
L 329.967218 246.768 
L 331.598648 220.896 
L 333.230078 211.488 
L 334.861508 252.48 
L 336.492937 211.488 
L 338.124367 228.624 
L 339.755797 211.488 
L 341.387227 270.288 
L 343.018657 275.328 
L 344.650087 211.488 
L 346.281517 225.264 
L 347.912947 228.624 
L 349.544376 237.696 
L 351.175806 201.744 
L 352.807236 259.872 
L 354.438666 221.568 
L 356.070096 254.496 
L 357.701526 211.488 
L 359.332956 211.488 
L 360.964386 267.6 
L 362.595815 216.528 
L 364.227245 225.264 
L 365.858675 211.488 
L 367.490105 230.64 
L 369.121535 240.384 
L 370.752965 286.752 
L 372.384395 211.488 
L 374.015825 226.272 
L 375.647254 216.528 
L 377.278684 207.12 
L 378.910114 255.504 
L 380.541544 211.488 
L 382.172974 219.552 
L 383.804404 211.488 
L 385.435834 238.032 
L 387.067264 271.968 
L 388.698693 211.488 
L 390.330123 211.488 
L 391.961553 225.6 
L 393.592983 255.168 
L 395.224413 238.032 
L 396.855843 211.488 
L 398.487273 211.488 
L 398.487273 56.256 
L 398.487273 56.256 
L 396.855843 54.576 
L 395.224413 71.06278 
L 393.592983 59.952 
L 391.961553 68.688 
L 390.330123 71.16 
L 388.698693 70.606255 
L 387.067264 68.688 
L 385.435834 66 
L 383.804404 57.936 
L 382.172974 57.264 
L 380.541544 56.256 
L 378.910114 61.968 
L 377.278684 57.6 
L 375.647254 69.608348 
L 374.015825 68.947636 
L 372.384395 54.24 
L 370.752965 67.68 
L 369.121535 71.6448 
L 367.490105 71.32 
L 365.858675 53.904 
L 364.227245 54.576 
L 362.595815 71.892923 
L 360.964386 58.272 
L 359.332956 69.024 
L 357.701526 71.768 
L 356.070096 71.76 
L 354.438666 70.674353 
L 352.807236 70.032 
L 351.175806 68.688 
L 349.544376 69.934452 
L 347.912947 69.8864 
L 346.281517 68.873379 
L 344.650087 63.312 
L 343.018657 63.648 
L 341.387227 55.92 
L 339.755797 61.632 
L 338.124367 65.328 
L 336.492937 68.016 
L 334.861508 53.904 
L 333.230078 60.288 
L 331.598648 65.9832 
L 329.967218 57.936 
L 328.335788 72.72 
L 326.704358 62.304 
L 325.072928 74.064 
L 323.441498 68.352 
L 321.810069 61.632 
L 320.178639 74.151652 
L 318.547209 72.384 
L 316.915779 73.712 
L 315.284349 58.944 
L 313.652919 60.624 
L 312.021489 65.664 
L 310.390059 68.871273 
L 308.75863 56.928 
L 307.1272 54.24 
L 305.49577 70.224 
L 303.86434 68.969806 
L 302.23291 68.9344 
L 300.60148 68.039172 
L 298.97005 67.596 
L 297.33862 64.656 
L 295.70719 67.072615 
L 294.075761 66.86016 
L 292.444331 65.328 
L 290.812901 66.306783 
L 289.181471 59.952 
L 287.550041 54.24 
L 285.918611 61.296 
L 284.287181 70.872 
L 282.655751 70.256 
L 281.024322 56.256 
L 279.392892 74.210087 
L 277.761462 67.68 
L 276.130032 73.056 
L 274.498602 68.352 
L 272.867172 71.712 
L 271.235742 69.024 
L 269.604312 54.912 
L 267.972883 53.568 
L 266.341453 81.904 
L 264.710023 54.912 
L 263.078593 72.5016 
L 261.447163 62.976 
L 259.815733 71.419826 
L 258.184303 71.345455 
L 256.552873 69.952 
L 254.921444 68.9064 
L 253.290014 58.272 
L 251.658584 74.428 
L 250.027154 73.990957 
L 248.395724 73.728 
L 246.764294 68.688 
L 245.132864 71.52 
L 243.501434 60.288 
L 241.870005 69.024 
L 240.238575 64.992 
L 238.607145 71.712 
L 236.975715 74.048 
L 235.344285 73.56 
L 233.712855 62.976 
L 232.081425 66.809455 
L 230.449995 66.304 
L 228.818566 54.912 
L 227.187136 73.056 
L 225.555706 74.8704 
L 223.924276 74.795294 
L 222.292846 69.696 
L 220.661416 68.128 
L 219.029986 67.344 
L 217.398556 57.936 
L 215.767127 67.358609 
L 214.135697 54.912 
L 212.504267 60.96 
L 210.872837 56.592 
L 209.241407 71.408 
L 207.609977 67.89913 
L 205.978547 67.710545 
L 204.347117 57.264 
L 202.715688 67.8816 
L 201.084258 57.264 
L 199.452828 69.36 
L 197.821398 56.928 
L 196.189968 73.231304 
L 194.558538 72.628364 
L 192.927108 70.368 
L 191.295678 54.24 
L 189.664249 61.968 
L 188.032819 69.2088 
L 186.401389 71.29536 
L 184.769959 69.024 
L 183.138529 70.294957 
L 181.507099 69.925091 
L 179.875669 69.776 
L 178.244239 68.9904 
L 176.61281 74.064 
L 174.98138 76.752 
L 173.34995 65.328 
L 171.71852 66.672 
L 170.08709 62.976 
L 168.45566 76.896 
L 166.82423 71.248 
L 165.1928 64.656 
L 163.56137 64.32 
L 161.929941 72.72 
L 160.298511 57.264 
L 158.667081 74.064 
L 157.035651 74.4336 
L 155.404221 70.032 
L 153.772791 62.64 
L 152.141361 74.736 
L 150.509931 78.4 
L 148.878502 54.24 
L 147.247072 54.24 
L 145.615642 63.648 
L 143.984212 75.072 
L 142.352782 77.76 
L 140.721352 81.587478 
L 139.089922 81.349091 
L 137.458492 74.16 
L 135.827063 69.024 
L 134.195633 84.5136 
L 132.564203 89.136 
L 130.932773 75.072 
L 129.301343 93.1488 
L 127.669913 62.976 
L 126.038483 77.58528 
L 124.407053 77.312 
L 122.775624 76.97113 
L 121.144194 76.874182 
L 119.512764 61.296 
L 117.881334 76.9536 
L 116.249904 79.264696 
L 114.618474 77.76 
L 112.987044 78.88 
L 111.355614 78.516 
L 109.724185 74.589913 
L 108.092755 64.656 
L 106.461325 70.781538 
L 104.829895 64.992 
L 103.198465 70.9 
L 101.567035 70.470261 
L 99.935605 70.2 
L 98.304175 69.024 
L 96.672746 60.96 
L 95.041316 70.704 
L 93.409886 73.776 
L 91.778456 74.064 
L 90.147026 102.3888 
L 88.515596 101.952 
L 86.884166 88.848 
L 85.252736 112.64 
L 83.621307 111.7632 
L 81.989877 120.9696 
L 80.358447 121.86 
L 78.727017 126.8664 
L 77.095587 127.488 
L 75.464157 127.488 
L 73.832727 127.488 
z
" style="fill:#1f77b4;fill-opacity:0.1;"/>
   </g>
   <g id="matplotlib.axis_1">
    <g id="xtick_1">
     <g id="line2d_1">
      <defs>
       <path d="M 0 0 
L 0 3.5 
" id="mb19fc5c667" style="stroke:#000000;stroke-width:0.8;"/>
      </defs>
      <g>
       <use style="stroke:#000000;stroke-width:0.8;" x="73.832727" xlink:href="#mb19fc5c667" y="307.584"/>
      </g>
     </g>
     <g id="text_1">
      <!-- 0 -->
      <defs>
       <path d="M 31.78125 66.40625 
Q 24.171875 66.40625 20.328125 58.90625 
Q 16.5 51.421875 16.5 36.375 
Q 16.5 21.390625 20.328125 13.890625 
Q 24.171875 6.390625 31.78125 6.390625 
Q 39.453125 6.390625 43.28125 13.890625 
Q 47.125 21.390625 47.125 36.375 
Q 47.125 51.421875 43.28125 58.90625 
Q 39.453125 66.40625 31.78125 66.40625 
z
M 31.78125 74.21875 
Q 44.046875 74.21875 50.515625 64.515625 
Q 56.984375 54.828125 56.984375 36.375 
Q 56.984375 17.96875 50.515625 8.265625 
Q 44.046875 -1.421875 31.78125 -1.421875 
Q 19.53125 -1.421875 13.0625 8.265625 
Q 6.59375 17.96875 6.59375 36.375 
Q 6.59375 54.828125 13.0625 64.515625 
Q 19.53125 74.21875 31.78125 74.21875 
z
" id="DejaVuSans-48"/>
      </defs>
      <g transform="translate(70.651477 322.182437)scale(0.1 -0.1)">
       <use xlink:href="#DejaVuSans-48"/>
      </g>
     </g>
    </g>
    <g id="xtick_2">
     <g id="line2d_2">
      <g>
       <use style="stroke:#000000;stroke-width:0.8;" x="114.618474" xlink:href="#mb19fc5c667" y="307.584"/>
      </g>
     </g>
     <g id="text_2">
      <!-- 25 -->
      <defs>
       <path d="M 19.1875 8.296875 
L 53.609375 8.296875 
L 53.609375 0 
L 7.328125 0 
L 7.328125 8.296875 
Q 12.9375 14.109375 22.625 23.890625 
Q 32.328125 33.6875 34.8125 36.53125 
Q 39.546875 41.84375 41.421875 45.53125 
Q 43.3125 49.21875 43.3125 52.78125 
Q 43.3125 58.59375 39.234375 62.25 
Q 35.15625 65.921875 28.609375 65.921875 
Q 23.96875 65.921875 18.8125 64.3125 
Q 13.671875 62.703125 7.8125 59.421875 
L 7.8125 69.390625 
Q 13.765625 71.78125 18.9375 73 
Q 24.125 74.21875 28.421875 74.21875 
Q 39.75 74.21875 46.484375 68.546875 
Q 53.21875 62.890625 53.21875 53.421875 
Q 53.21875 48.921875 51.53125 44.890625 
Q 49.859375 40.875 45.40625 35.40625 
Q 44.1875 33.984375 37.640625 27.21875 
Q 31.109375 20.453125 19.1875 8.296875 
z
" id="DejaVuSans-50"/>
       <path d="M 10.796875 72.90625 
L 49.515625 72.90625 
L 49.515625 64.59375 
L 19.828125 64.59375 
L 19.828125 46.734375 
Q 21.96875 47.46875 24.109375 47.828125 
Q 26.265625 48.1875 28.421875 48.1875 
Q 40.625 48.1875 47.75 41.5 
Q 54.890625 34.8125 54.890625 23.390625 
Q 54.890625 11.625 47.5625 5.09375 
Q 40.234375 -1.421875 26.90625 -1.421875 
Q 22.3125 -1.421875 17.546875 -0.640625 
Q 12.796875 0.140625 7.71875 1.703125 
L 7.71875 11.625 
Q 12.109375 9.234375 16.796875 8.0625 
Q 21.484375 6.890625 26.703125 6.890625 
Q 35.15625 6.890625 40.078125 11.328125 
Q 45.015625 15.765625 45.015625 23.390625 
Q 45.015625 31 40.078125 35.4375 
Q 35.15625 39.890625 26.703125 39.890625 
Q 22.75 39.890625 18.8125 39.015625 
Q 14.890625 38.140625 10.796875 36.28125 
z
" id="DejaVuSans-53"/>
      </defs>
      <g transform="translate(108.255974 322.182437)scale(0.1 -0.1)">
       <use xlink:href="#DejaVuSans-50"/>
       <use x="63.623047" xlink:href="#DejaVuSans-53"/>
      </g>
     </g>
    </g>
    <g id="xtick_3">
     <g id="line2d_3">
      <g>
       <use style="stroke:#000000;stroke-width:0.8;" x="155.404221" xlink:href="#mb19fc5c667" y="307.584"/>
      </g>
     </g>
     <g id="text_3">
      <!-- 50 -->
      <g transform="translate(149.041721 322.182437)scale(0.1 -0.1)">
       <use xlink:href="#DejaVuSans-53"/>
       <use x="63.623047" xlink:href="#DejaVuSans-48"/>
      </g>
     </g>
    </g>
    <g id="xtick_4">
     <g id="line2d_4">
      <g>
       <use style="stroke:#000000;stroke-width:0.8;" x="196.189968" xlink:href="#mb19fc5c667" y="307.584"/>
      </g>
     </g>
     <g id="text_4">
      <!-- 75 -->
      <defs>
       <path d="M 8.203125 72.90625 
L 55.078125 72.90625 
L 55.078125 68.703125 
L 28.609375 0 
L 18.3125 0 
L 43.21875 64.59375 
L 8.203125 64.59375 
z
" id="DejaVuSans-55"/>
      </defs>
      <g transform="translate(189.827468 322.182437)scale(0.1 -0.1)">
       <use xlink:href="#DejaVuSans-55"/>
       <use x="63.623047" xlink:href="#DejaVuSans-53"/>
      </g>
     </g>
    </g>
    <g id="xtick_5">
     <g id="line2d_5">
      <g>
       <use style="stroke:#000000;stroke-width:0.8;" x="236.975715" xlink:href="#mb19fc5c667" y="307.584"/>
      </g>
     </g>
     <g id="text_5">
      <!-- 100 -->
      <defs>
       <path d="M 12.40625 8.296875 
L 28.515625 8.296875 
L 28.515625 63.921875 
L 10.984375 60.40625 
L 10.984375 69.390625 
L 28.421875 72.90625 
L 38.28125 72.90625 
L 38.28125 8.296875 
L 54.390625 8.296875 
L 54.390625 0 
L 12.40625 0 
z
" id="DejaVuSans-49"/>
      </defs>
      <g transform="translate(227.431965 322.182437)scale(0.1 -0.1)">
       <use xlink:href="#DejaVuSans-49"/>
       <use x="63.623047" xlink:href="#DejaVuSans-48"/>
       <use x="127.246094" xlink:href="#DejaVuSans-48"/>
      </g>
     </g>
    </g>
    <g id="xtick_6">
     <g id="line2d_6">
      <g>
       <use style="stroke:#000000;stroke-width:0.8;" x="277.761462" xlink:href="#mb19fc5c667" y="307.584"/>
      </g>
     </g>
     <g id="text_6">
      <!-- 125 -->
      <g transform="translate(268.217712 322.182437)scale(0.1 -0.1)">
       <use xlink:href="#DejaVuSans-49"/>
       <use x="63.623047" xlink:href="#DejaVuSans-50"/>
       <use x="127.246094" xlink:href="#DejaVuSans-53"/>
      </g>
     </g>
    </g>
    <g id="xtick_7">
     <g id="line2d_7">
      <g>
       <use style="stroke:#000000;stroke-width:0.8;" x="318.547209" xlink:href="#mb19fc5c667" y="307.584"/>
      </g>
     </g>
     <g id="text_7">
      <!-- 150 -->
      <g transform="translate(309.003459 322.182437)scale(0.1 -0.1)">
       <use xlink:href="#DejaVuSans-49"/>
       <use x="63.623047" xlink:href="#DejaVuSans-53"/>
       <use x="127.246094" xlink:href="#DejaVuSans-48"/>
      </g>
     </g>
    </g>
    <g id="xtick_8">
     <g id="line2d_8">
      <g>
       <use style="stroke:#000000;stroke-width:0.8;" x="359.332956" xlink:href="#mb19fc5c667" y="307.584"/>
      </g>
     </g>
     <g id="text_8">
      <!-- 175 -->
      <g transform="translate(349.789206 322.182437)scale(0.1 -0.1)">
       <use xlink:href="#DejaVuSans-49"/>
       <use x="63.623047" xlink:href="#DejaVuSans-55"/>
       <use x="127.246094" xlink:href="#DejaVuSans-53"/>
      </g>
     </g>
    </g>
    <g id="xtick_9">
     <g id="line2d_9">
      <g>
       <use style="stroke:#000000;stroke-width:0.8;" x="400.118703" xlink:href="#mb19fc5c667" y="307.584"/>
      </g>
     </g>
     <g id="text_9">
      <!-- 200 -->
      <g transform="translate(390.574953 322.182437)scale(0.1 -0.1)">
       <use xlink:href="#DejaVuSans-50"/>
       <use x="63.623047" xlink:href="#DejaVuSans-48"/>
       <use x="127.246094" xlink:href="#DejaVuSans-48"/>
      </g>
     </g>
    </g>
   </g>
   <g id="matplotlib.axis_2">
    <g id="ytick_1">
     <g id="line2d_10">
      <defs>
       <path d="M 0 0 
L -3.5 0 
" id="md4f5093e1b" style="stroke:#000000;stroke-width:0.8;"/>
      </defs>
      <g>
       <use style="stroke:#000000;stroke-width:0.8;" x="57.6" xlink:href="#md4f5093e1b" y="295.488"/>
      </g>
     </g>
     <g id="text_10">
      <!-- 0.0 -->
      <defs>
       <path d="M 10.6875 12.40625 
L 21 12.40625 
L 21 0 
L 10.6875 0 
z
" id="DejaVuSans-46"/>
      </defs>
      <g transform="translate(34.696875 299.287219)scale(0.1 -0.1)">
       <use xlink:href="#DejaVuSans-48"/>
       <use x="63.623047" xlink:href="#DejaVuSans-46"/>
       <use x="95.410156" xlink:href="#DejaVuSans-48"/>
      </g>
     </g>
    </g>
    <g id="ytick_2">
     <g id="line2d_11">
      <g>
       <use style="stroke:#000000;stroke-width:0.8;" x="57.6" xlink:href="#md4f5093e1b" y="245.088"/>
      </g>
     </g>
     <g id="text_11">
      <!-- 0.2 -->
      <g transform="translate(34.696875 248.887219)scale(0.1 -0.1)">
       <use xlink:href="#DejaVuSans-48"/>
       <use x="63.623047" xlink:href="#DejaVuSans-46"/>
       <use x="95.410156" xlink:href="#DejaVuSans-50"/>
      </g>
     </g>
    </g>
    <g id="ytick_3">
     <g id="line2d_12">
      <g>
       <use style="stroke:#000000;stroke-width:0.8;" x="57.6" xlink:href="#md4f5093e1b" y="194.688"/>
      </g>
     </g>
     <g id="text_12">
      <!-- 0.4 -->
      <defs>
       <path d="M 37.796875 64.3125 
L 12.890625 25.390625 
L 37.796875 25.390625 
z
M 35.203125 72.90625 
L 47.609375 72.90625 
L 47.609375 25.390625 
L 58.015625 25.390625 
L 58.015625 17.1875 
L 47.609375 17.1875 
L 47.609375 0 
L 37.796875 0 
L 37.796875 17.1875 
L 4.890625 17.1875 
L 4.890625 26.703125 
z
" id="DejaVuSans-52"/>
      </defs>
      <g transform="translate(34.696875 198.487219)scale(0.1 -0.1)">
       <use xlink:href="#DejaVuSans-48"/>
       <use x="63.623047" xlink:href="#DejaVuSans-46"/>
       <use x="95.410156" xlink:href="#DejaVuSans-52"/>
      </g>
     </g>
    </g>
    <g id="ytick_4">
     <g id="line2d_13">
      <g>
       <use style="stroke:#000000;stroke-width:0.8;" x="57.6" xlink:href="#md4f5093e1b" y="144.288"/>
      </g>
     </g>
     <g id="text_13">
      <!-- 0.6 -->
      <defs>
       <path d="M 33.015625 40.375 
Q 26.375 40.375 22.484375 35.828125 
Q 18.609375 31.296875 18.609375 23.390625 
Q 18.609375 15.53125 22.484375 10.953125 
Q 26.375 6.390625 33.015625 6.390625 
Q 39.65625 6.390625 43.53125 10.953125 
Q 47.40625 15.53125 47.40625 23.390625 
Q 47.40625 31.296875 43.53125 35.828125 
Q 39.65625 40.375 33.015625 40.375 
z
M 52.59375 71.296875 
L 52.59375 62.3125 
Q 48.875 64.0625 45.09375 64.984375 
Q 41.3125 65.921875 37.59375 65.921875 
Q 27.828125 65.921875 22.671875 59.328125 
Q 17.53125 52.734375 16.796875 39.40625 
Q 19.671875 43.65625 24.015625 45.921875 
Q 28.375 48.1875 33.59375 48.1875 
Q 44.578125 48.1875 50.953125 41.515625 
Q 57.328125 34.859375 57.328125 23.390625 
Q 57.328125 12.15625 50.6875 5.359375 
Q 44.046875 -1.421875 33.015625 -1.421875 
Q 20.359375 -1.421875 13.671875 8.265625 
Q 6.984375 17.96875 6.984375 36.375 
Q 6.984375 53.65625 15.1875 63.9375 
Q 23.390625 74.21875 37.203125 74.21875 
Q 40.921875 74.21875 44.703125 73.484375 
Q 48.484375 72.75 52.59375 71.296875 
z
" id="DejaVuSans-54"/>
      </defs>
      <g transform="translate(34.696875 148.087219)scale(0.1 -0.1)">
       <use xlink:href="#DejaVuSans-48"/>
       <use x="63.623047" xlink:href="#DejaVuSans-46"/>
       <use x="95.410156" xlink:href="#DejaVuSans-54"/>
      </g>
     </g>
    </g>
    <g id="ytick_5">
     <g id="line2d_14">
      <g>
       <use style="stroke:#000000;stroke-width:0.8;" x="57.6" xlink:href="#md4f5093e1b" y="93.888"/>
      </g>
     </g>
     <g id="text_14">
      <!-- 0.8 -->
      <defs>
       <path d="M 31.78125 34.625 
Q 24.75 34.625 20.71875 30.859375 
Q 16.703125 27.09375 16.703125 20.515625 
Q 16.703125 13.921875 20.71875 10.15625 
Q 24.75 6.390625 31.78125 6.390625 
Q 38.8125 6.390625 42.859375 10.171875 
Q 46.921875 13.96875 46.921875 20.515625 
Q 46.921875 27.09375 42.890625 30.859375 
Q 38.875 34.625 31.78125 34.625 
z
M 21.921875 38.8125 
Q 15.578125 40.375 12.03125 44.71875 
Q 8.5 49.078125 8.5 55.328125 
Q 8.5 64.0625 14.71875 69.140625 
Q 20.953125 74.21875 31.78125 74.21875 
Q 42.671875 74.21875 48.875 69.140625 
Q 55.078125 64.0625 55.078125 55.328125 
Q 55.078125 49.078125 51.53125 44.71875 
Q 48 40.375 41.703125 38.8125 
Q 48.828125 37.15625 52.796875 32.3125 
Q 56.78125 27.484375 56.78125 20.515625 
Q 56.78125 9.90625 50.3125 4.234375 
Q 43.84375 -1.421875 31.78125 -1.421875 
Q 19.734375 -1.421875 13.25 4.234375 
Q 6.78125 9.90625 6.78125 20.515625 
Q 6.78125 27.484375 10.78125 32.3125 
Q 14.796875 37.15625 21.921875 38.8125 
z
M 18.3125 54.390625 
Q 18.3125 48.734375 21.84375 45.5625 
Q 25.390625 42.390625 31.78125 42.390625 
Q 38.140625 42.390625 41.71875 45.5625 
Q 45.3125 48.734375 45.3125 54.390625 
Q 45.3125 60.0625 41.71875 63.234375 
Q 38.140625 66.40625 31.78125 66.40625 
Q 25.390625 66.40625 21.84375 63.234375 
Q 18.3125 60.0625 18.3125 54.390625 
z
" id="DejaVuSans-56"/>
      </defs>
      <g transform="translate(34.696875 97.687219)scale(0.1 -0.1)">
       <use xlink:href="#DejaVuSans-48"/>
       <use x="63.623047" xlink:href="#DejaVuSans-46"/>
       <use x="95.410156" xlink:href="#DejaVuSans-56"/>
      </g>
     </g>
    </g>
    <g id="ytick_6">
     <g id="line2d_15">
      <g>
       <use style="stroke:#000000;stroke-width:0.8;" x="57.6" xlink:href="#md4f5093e1b" y="43.488"/>
      </g>
     </g>
     <g id="text_15">
      <!-- 1.0 -->
      <g transform="translate(34.696875 47.287219)scale(0.1 -0.1)">
       <use xlink:href="#DejaVuSans-49"/>
       <use x="63.623047" xlink:href="#DejaVuSans-46"/>
       <use x="95.410156" xlink:href="#DejaVuSans-48"/>
      </g>
     </g>
    </g>
   </g>
   <g id="line2d_16">
    <path clip-path="url(#p8da5c37a28)" d="M 73.832727 211.488 
L 75.464157 199.584 
L 77.095587 159.072 
L 78.727017 153.696 
L 80.358447 155.376 
L 81.989877 129.84 
L 83.621307 138.24 
L 85.252736 162.096 
L 86.884166 133.032 
L 88.515596 146.108 
L 90.147026 141.6 
L 91.778456 144.96 
L 93.409886 141.299061 
L 95.041316 130.512 
L 96.672746 142.608 
L 98.304175 136.56 
L 99.935605 142.58784 
L 101.567035 153.024 
L 103.198465 138.24 
L 104.829895 136.224 
L 106.461325 141.872276 
L 108.092755 137.232 
L 109.724185 142.44 
L 111.355614 149.328 
L 112.987044 147.984 
L 114.618474 133.872 
L 116.249904 133.872 
L 117.881334 134.376 
L 119.512764 134.544 
L 121.144194 141.6 
L 122.775624 144.96 
L 124.407053 152.184 
L 126.038483 147.984 
L 127.669913 136.956 
L 129.301343 151.344 
L 130.932773 141.264 
L 132.564203 141.6 
L 134.195633 151.008 
L 135.827063 128.328 
L 137.458492 133.536 
L 139.089922 140.76 
L 140.721352 137.036 
L 142.352782 138.912 
L 143.984212 151.68 
L 145.615642 123.249818 
L 147.247072 135.216 
L 148.878502 135.384 
L 150.509931 152.52 
L 152.141361 137.904 
L 153.772791 141.936 
L 155.404221 140.256 
L 157.035651 136.103478 
L 158.667081 138.086298 
L 160.298511 130.68 
L 161.929941 132.192 
L 163.56137 135.7032 
L 165.1928 129.336 
L 166.82423 150 
L 168.45566 133.704 
L 170.08709 123.792 
L 171.71852 137.4 
L 173.34995 127.656 
L 174.98138 128.328 
L 176.61281 144.52 
L 178.244239 127.184516 
L 179.875669 139.08 
L 181.507099 130.976 
L 183.138529 145.296 
L 184.769959 135.552 
L 186.401389 155.712 
L 188.032819 130.84128 
L 189.664249 137.904 
L 191.295678 127.656 
L 192.927108 138.24 
L 194.558538 133.015742 
L 196.189968 129.672 
L 197.821398 135.216 
L 199.452828 124.439111 
L 201.084258 134.944 
L 202.715688 126.589565 
L 204.347117 126.634 
L 205.978547 129.08 
L 207.609977 142.272 
L 209.241407 142.688 
L 210.872837 130 
L 212.504267 124.632 
L 214.135697 136.392 
L 215.767127 135.8124 
L 217.398556 149.757333 
L 219.029986 150.816 
L 220.661416 134.544 
L 222.292846 128.832 
L 223.924276 143.28 
L 225.555706 151.2915 
L 227.187136 152.016 
L 228.818566 136.56 
L 230.449995 133.9392 
L 232.081425 145.586182 
L 233.712855 144.792 
L 235.344285 146.304 
L 236.975715 126.144 
L 238.607145 132.024 
L 240.238575 131.688 
L 241.870005 133.708748 
L 243.501434 138.912 
L 245.132864 131.626286 
L 246.764294 127.152 
L 248.395724 148.491652 
L 250.027154 155.376 
L 251.658584 145.128 
L 254.921444 128.16 
L 256.552873 139.790182 
L 258.184303 141.054 
L 259.815733 131.394 
L 261.447163 147.738222 
L 263.078593 155.04 
L 264.710023 137.736 
L 266.341453 139.92 
L 267.972883 135.007448 
L 269.604312 137.785778 
L 271.235742 158.4 
L 272.867172 141.719 
L 274.498602 132.024 
L 276.130032 151.344 
L 277.761462 134.748 
L 279.392892 160.08 
L 281.024322 126.144 
L 282.655751 151.008 
L 284.287181 155.712 
L 285.918611 144.288 
L 287.550041 127.824 
L 289.181471 128.496 
L 290.812901 142.272 
L 292.444331 149.832 
L 294.075761 175.872 
L 295.70719 129.504 
L 297.33862 161.497043 
L 298.97005 158.232 
L 300.60148 128.832 
L 302.23291 153.864 
L 303.86434 154.872 
L 305.49577 159.408 
L 307.1272 146.168 
L 308.75863 136.56 
L 310.390059 136.392 
L 312.021489 145.968 
L 313.652919 120.264 
L 315.284349 143.5068 
L 316.915779 150.456 
L 318.547209 143.306053 
L 320.178639 149.664 
L 321.810069 139.416 
L 323.441498 127.488 
L 325.072928 147.648 
L 326.704358 132.864 
L 328.335788 128.16 
L 329.967218 125.304 
L 331.598648 142.2468 
L 333.230078 129.168 
L 334.861508 139.416 
L 336.492937 145.632 
L 338.124367 132.864 
L 339.755797 130.344 
L 341.387227 80.448 
L 343.018657 112.032 
L 344.650087 126.816 
L 346.281517 136.224 
L 347.912947 136.392 
L 349.544376 103.296 
L 351.175806 107.16 
L 352.807236 120.432 
L 354.438666 127.488 
L 356.070096 174.696 
L 357.701526 148.293867 
L 359.332956 124.968 
L 360.964386 142.734 
L 362.595815 119.928 
L 364.227245 123.792 
L 365.858675 80.944364 
L 367.490105 153.024 
L 369.121535 144.656 
L 370.752965 127.656 
L 372.384395 149.496 
L 374.015825 144.456 
L 375.647254 102.456 
L 377.278684 121.944 
L 378.910114 143.28 
L 380.541544 141.264 
L 382.172974 137.01287 
L 383.804404 144.549767 
L 385.435834 108.336 
L 387.067264 161.76 
L 388.698693 130.0416 
L 390.330123 136.224 
L 391.961553 147.48 
L 393.592983 94.896 
L 395.224413 137.456 
L 396.855843 146.214251 
L 398.487273 68.52 
L 398.487273 68.52 
" style="fill:none;stroke:#1f77b4;stroke-linecap:square;stroke-width:0.25;"/>
   </g>
   <g id="line2d_17">
    <path clip-path="url(#p8da5c37a28)" d="M 73.832727 208.29936 
L 75.464157 177.329976 
L 77.095587 167.726536 
L 78.727017 156.49781 
L 80.358447 158.022852 
L 81.989877 153.920589 
L 83.621307 150.33611 
L 85.252736 160.996494 
L 86.884166 148.819743 
L 88.515596 155.380245 
L 90.147026 157.173921 
L 91.778456 158.728181 
L 93.409886 152.05245 
L 95.041316 136.747681 
L 96.672746 150.966494 
L 98.304175 143.223321 
L 99.935605 151.458094 
L 101.567035 158.414296 
L 103.198465 142.646918 
L 104.829895 140.410177 
L 106.461325 152.318746 
L 108.092755 148.705456 
L 109.724185 150.84258 
L 111.355614 155.190009 
L 112.987044 148.222509 
L 114.618474 139.711107 
L 116.249904 145.126697 
L 117.881334 139.114463 
L 119.512764 142.582791 
L 121.144194 147.894786 
L 122.775624 151.324884 
L 124.407053 152.564497 
L 126.038483 153.581918 
L 127.669913 145.309434 
L 129.301343 153.772595 
L 130.932773 150.604728 
L 132.564203 145.178679 
L 134.195633 153.188698 
L 135.827063 130.955274 
L 137.458492 137.891597 
L 139.089922 146.140398 
L 140.721352 148.856422 
L 142.352782 143.301058 
L 143.984212 152.366854 
L 145.615642 128.061501 
L 147.247072 137.466591 
L 148.878502 139.338459 
L 150.509931 153.58667 
L 152.141361 141.320843 
L 153.772791 140.903768 
L 155.404221 141.94408 
L 157.035651 142.212878 
L 158.667081 145.872939 
L 160.298511 131.94467 
L 161.929941 139.910174 
L 163.56137 135.274628 
L 165.1928 129.664075 
L 166.82423 146.432509 
L 170.08709 128.838571 
L 171.71852 140.36507 
L 173.34995 127.501874 
L 174.98138 136.070011 
L 176.61281 146.937965 
L 178.244239 133.439896 
L 179.875669 142.735636 
L 181.507099 129.02695 
L 183.138529 140.981412 
L 184.769959 142.666276 
L 186.401389 151.295489 
L 188.032819 128.924583 
L 189.664249 132.854015 
L 191.295678 126.328688 
L 192.927108 138.128329 
L 194.558538 138.532696 
L 196.189968 134.409407 
L 197.821398 138.672766 
L 199.452828 122.278542 
L 201.084258 132.277902 
L 202.715688 120.321626 
L 204.347117 123.378159 
L 205.978547 125.459555 
L 207.609977 144.601444 
L 209.241407 139.770282 
L 210.872837 127.926297 
L 212.504267 122.807149 
L 214.135697 131.34519 
L 215.767127 129.805598 
L 217.398556 145.359936 
L 219.029986 150.189523 
L 220.661416 136.689008 
L 222.292846 130.516475 
L 223.924276 148.671156 
L 225.555706 148.644802 
L 227.187136 148.763257 
L 228.818566 141.335411 
L 230.449995 128.037614 
L 232.081425 144.877602 
L 233.712855 141.453275 
L 235.344285 149.70625 
L 236.975715 131.244783 
L 238.607145 141.811452 
L 240.238575 130.384743 
L 241.870005 134.328909 
L 243.501434 135.751975 
L 245.132864 132.951552 
L 246.764294 129.353294 
L 248.395724 138.798529 
L 250.027154 153.551975 
L 251.658584 146.616596 
L 253.290014 138.419627 
L 254.921444 126.190101 
L 256.552873 141.811929 
L 258.184303 149.401768 
L 259.815733 130.888898 
L 261.447163 138.694748 
L 263.078593 153.807983 
L 264.710023 136.11601 
L 266.341453 144.294037 
L 267.972883 126.794463 
L 269.604312 135.009828 
L 271.235742 152.500188 
L 272.867172 134.358082 
L 274.498602 131.065053 
L 276.130032 141.255778 
L 277.761462 132.376162 
L 279.392892 153.091799 
L 281.024322 122.201932 
L 282.655751 141.457662 
L 284.287181 157.178953 
L 285.918611 147.196743 
L 287.550041 122.951894 
L 289.181471 131.749293 
L 290.812901 149.094111 
L 292.444331 150.815351 
L 294.075761 163.225905 
L 295.70719 126.934115 
L 297.33862 148.962938 
L 298.97005 154.611598 
L 300.60148 136.189783 
L 302.23291 151.500372 
L 303.86434 147.375566 
L 305.49577 152.597955 
L 307.1272 141.583749 
L 308.75863 132.532033 
L 310.390059 131.866567 
L 312.021489 140.094114 
L 313.652919 119.168755 
L 315.284349 140.189327 
L 316.915779 153.917856 
L 318.547209 146.503024 
L 320.178639 143.990551 
L 321.810069 142.75261 
L 323.441498 122.172538 
L 325.072928 142.144773 
L 326.704358 130.546452 
L 328.335788 123.968989 
L 329.967218 125.6986 
L 331.598648 136.999406 
L 333.230078 125.938026 
L 334.861508 133.589045 
L 336.492937 139.837553 
L 338.124367 130.920072 
L 339.755797 124.304186 
L 341.387227 109.570157 
L 343.018657 119.507449 
L 344.650087 122.022371 
L 346.281517 132.740007 
L 347.912947 139.306967 
L 349.544376 118.311507 
L 351.175806 114.814823 
L 352.807236 121.09981 
L 354.438666 126.705325 
L 356.070096 156.889194 
L 359.332956 124.809337 
L 360.964386 134.422495 
L 362.595815 128.627102 
L 364.227245 120.999979 
L 365.858675 110.371501 
L 367.490105 140.627452 
L 369.121535 135.454446 
L 370.752965 120.764696 
L 372.384395 138.20833 
L 374.015825 136.688402 
L 375.647254 120.939081 
L 377.278684 118.025278 
L 378.910114 131.368841 
L 380.541544 130.272197 
L 382.172974 130.543593 
L 383.804404 136.168277 
L 385.435834 118.442703 
L 387.067264 152.163296 
L 388.698693 131.16513 
L 390.330123 140.983114 
L 391.961553 136.453357 
L 393.592983 114.470615 
L 395.224413 130.505115 
L 396.855843 130.167074 
L 398.487273 102.193722 
L 398.487273 102.193722 
" style="fill:none;stroke:#2ca02c;stroke-linecap:square;stroke-width:0.75;"/>
   </g>
   <g id="patch_3">
    <path d="M 57.6 307.584 
L 57.6 41.472 
" style="fill:none;stroke:#000000;stroke-linecap:square;stroke-linejoin:miter;stroke-width:0.8;"/>
   </g>
   <g id="patch_4">
    <path d="M 414.72 307.584 
L 414.72 41.472 
" style="fill:none;stroke:#000000;stroke-linecap:square;stroke-linejoin:miter;stroke-width:0.8;"/>
   </g>
   <g id="patch_5">
    <path d="M 57.6 307.584 
L 414.72 307.584 
" style="fill:none;stroke:#000000;stroke-linecap:square;stroke-linejoin:miter;stroke-width:0.8;"/>
   </g>
   <g id="patch_6">
    <path d="M 57.6 41.472 
L 414.72 41.472 
" style="fill:none;stroke:#000000;stroke-linecap:square;stroke-linejoin:miter;stroke-width:0.8;"/>
   </g>
   <g id="legend_1">
    <g id="patch_7">
     <path d="M 64.6 78.82825 
L 134.085938 78.82825 
Q 136.085938 78.82825 136.085938 76.82825 
L 136.085938 48.472 
Q 136.085938 46.472 134.085938 46.472 
L 64.6 46.472 
Q 62.6 46.472 62.6 48.472 
L 62.6 76.82825 
Q 62.6 78.82825 64.6 78.82825 
z
" style="fill:#ffffff;opacity:0.8;stroke:#cccccc;stroke-linejoin:miter;"/>
    </g>
    <g id="line2d_18">
     <path d="M 66.6 54.570437 
L 86.6 54.570437 
" style="fill:none;stroke:#1f77b4;stroke-linecap:square;stroke-width:0.25;"/>
    </g>
    <g id="line2d_19"/>
    <g id="text_16">
     <!-- median -->
     <defs>
      <path d="M 52 44.1875 
Q 55.375 50.25 60.0625 53.125 
Q 64.75 56 71.09375 56 
Q 79.640625 56 84.28125 50.015625 
Q 88.921875 44.046875 88.921875 33.015625 
L 88.921875 0 
L 79.890625 0 
L 79.890625 32.71875 
Q 79.890625 40.578125 77.09375 44.375 
Q 74.3125 48.1875 68.609375 48.1875 
Q 61.625 48.1875 57.5625 43.546875 
Q 53.515625 38.921875 53.515625 30.90625 
L 53.515625 0 
L 44.484375 0 
L 44.484375 32.71875 
Q 44.484375 40.625 41.703125 44.40625 
Q 38.921875 48.1875 33.109375 48.1875 
Q 26.21875 48.1875 22.15625 43.53125 
Q 18.109375 38.875 18.109375 30.90625 
L 18.109375 0 
L 9.078125 0 
L 9.078125 54.6875 
L 18.109375 54.6875 
L 18.109375 46.1875 
Q 21.1875 51.21875 25.484375 53.609375 
Q 29.78125 56 35.6875 56 
Q 41.65625 56 45.828125 52.96875 
Q 50 49.953125 52 44.1875 
z
" id="DejaVuSans-109"/>
      <path d="M 56.203125 29.59375 
L 56.203125 25.203125 
L 14.890625 25.203125 
Q 15.484375 15.921875 20.484375 11.0625 
Q 25.484375 6.203125 34.421875 6.203125 
Q 39.59375 6.203125 44.453125 7.46875 
Q 49.3125 8.734375 54.109375 11.28125 
L 54.109375 2.78125 
Q 49.265625 0.734375 44.1875 -0.34375 
Q 39.109375 -1.421875 33.890625 -1.421875 
Q 20.796875 -1.421875 13.15625 6.1875 
Q 5.515625 13.8125 5.515625 26.8125 
Q 5.515625 40.234375 12.765625 48.109375 
Q 20.015625 56 32.328125 56 
Q 43.359375 56 49.78125 48.890625 
Q 56.203125 41.796875 56.203125 29.59375 
z
M 47.21875 32.234375 
Q 47.125 39.59375 43.09375 43.984375 
Q 39.0625 48.390625 32.421875 48.390625 
Q 24.90625 48.390625 20.390625 44.140625 
Q 15.875 39.890625 15.1875 32.171875 
z
" id="DejaVuSans-101"/>
      <path d="M 45.40625 46.390625 
L 45.40625 75.984375 
L 54.390625 75.984375 
L 54.390625 0 
L 45.40625 0 
L 45.40625 8.203125 
Q 42.578125 3.328125 38.25 0.953125 
Q 33.9375 -1.421875 27.875 -1.421875 
Q 17.96875 -1.421875 11.734375 6.484375 
Q 5.515625 14.40625 5.515625 27.296875 
Q 5.515625 40.1875 11.734375 48.09375 
Q 17.96875 56 27.875 56 
Q 33.9375 56 38.25 53.625 
Q 42.578125 51.265625 45.40625 46.390625 
z
M 14.796875 27.296875 
Q 14.796875 17.390625 18.875 11.75 
Q 22.953125 6.109375 30.078125 6.109375 
Q 37.203125 6.109375 41.296875 11.75 
Q 45.40625 17.390625 45.40625 27.296875 
Q 45.40625 37.203125 41.296875 42.84375 
Q 37.203125 48.484375 30.078125 48.484375 
Q 22.953125 48.484375 18.875 42.84375 
Q 14.796875 37.203125 14.796875 27.296875 
z
" id="DejaVuSans-100"/>
      <path d="M 9.421875 54.6875 
L 18.40625 54.6875 
L 18.40625 0 
L 9.421875 0 
z
M 9.421875 75.984375 
L 18.40625 75.984375 
L 18.40625 64.59375 
L 9.421875 64.59375 
z
" id="DejaVuSans-105"/>
      <path d="M 34.28125 27.484375 
Q 23.390625 27.484375 19.1875 25 
Q 14.984375 22.515625 14.984375 16.5 
Q 14.984375 11.71875 18.140625 8.90625 
Q 21.296875 6.109375 26.703125 6.109375 
Q 34.1875 6.109375 38.703125 11.40625 
Q 43.21875 16.703125 43.21875 25.484375 
L 43.21875 27.484375 
z
M 52.203125 31.203125 
L 52.203125 0 
L 43.21875 0 
L 43.21875 8.296875 
Q 40.140625 3.328125 35.546875 0.953125 
Q 30.953125 -1.421875 24.3125 -1.421875 
Q 15.921875 -1.421875 10.953125 3.296875 
Q 6 8.015625 6 15.921875 
Q 6 25.140625 12.171875 29.828125 
Q 18.359375 34.515625 30.609375 34.515625 
L 43.21875 34.515625 
L 43.21875 35.40625 
Q 43.21875 41.609375 39.140625 45 
Q 35.0625 48.390625 27.6875 48.390625 
Q 23 48.390625 18.546875 47.265625 
Q 14.109375 46.140625 10.015625 43.890625 
L 10.015625 52.203125 
Q 14.9375 54.109375 19.578125 55.046875 
Q 24.21875 56 28.609375 56 
Q 40.484375 56 46.34375 49.84375 
Q 52.203125 43.703125 52.203125 31.203125 
z
" id="DejaVuSans-97"/>
      <path d="M 54.890625 33.015625 
L 54.890625 0 
L 45.90625 0 
L 45.90625 32.71875 
Q 45.90625 40.484375 42.875 44.328125 
Q 39.84375 48.1875 33.796875 48.1875 
Q 26.515625 48.1875 22.3125 43.546875 
Q 18.109375 38.921875 18.109375 30.90625 
L 18.109375 0 
L 9.078125 0 
L 9.078125 54.6875 
L 18.109375 54.6875 
L 18.109375 46.1875 
Q 21.34375 51.125 25.703125 53.5625 
Q 30.078125 56 35.796875 56 
Q 45.21875 56 50.046875 50.171875 
Q 54.890625 44.34375 54.890625 33.015625 
z
" id="DejaVuSans-110"/>
     </defs>
     <g transform="translate(94.6 58.070437)scale(0.1 -0.1)">
      <use xlink:href="#DejaVuSans-109"/>
      <use x="97.412109" xlink:href="#DejaVuSans-101"/>
      <use x="158.935547" xlink:href="#DejaVuSans-100"/>
      <use x="222.412109" xlink:href="#DejaVuSans-105"/>
      <use x="250.195312" xlink:href="#DejaVuSans-97"/>
      <use x="311.474609" xlink:href="#DejaVuSans-110"/>
     </g>
    </g>
    <g id="line2d_20">
     <path d="M 66.6 69.248562 
L 86.6 69.248562 
" style="fill:none;stroke:#2ca02c;stroke-linecap:square;stroke-width:0.75;"/>
    </g>
    <g id="line2d_21"/>
    <g id="text_17">
     <!-- mean -->
     <g transform="translate(94.6 72.748562)scale(0.1 -0.1)">
      <use xlink:href="#DejaVuSans-109"/>
      <use x="97.412109" xlink:href="#DejaVuSans-101"/>
      <use x="158.935547" xlink:href="#DejaVuSans-97"/>
      <use x="220.214844" xlink:href="#DejaVuSans-110"/>
     </g>
    </g>
   </g>
  </g>
  <g id="text_18">
   <!-- accuracy.mean over generations -->
   <defs>
    <path d="M 48.78125 52.59375 
L 48.78125 44.1875 
Q 44.96875 46.296875 41.140625 47.34375 
Q 37.3125 48.390625 33.40625 48.390625 
Q 24.65625 48.390625 19.8125 42.84375 
Q 14.984375 37.3125 14.984375 27.296875 
Q 14.984375 17.28125 19.8125 11.734375 
Q 24.65625 6.203125 33.40625 6.203125 
Q 37.3125 6.203125 41.140625 7.25 
Q 44.96875 8.296875 48.78125 10.40625 
L 48.78125 2.09375 
Q 45.015625 0.34375 40.984375 -0.53125 
Q 36.96875 -1.421875 32.421875 -1.421875 
Q 20.0625 -1.421875 12.78125 6.34375 
Q 5.515625 14.109375 5.515625 27.296875 
Q 5.515625 40.671875 12.859375 48.328125 
Q 20.21875 56 33.015625 56 
Q 37.15625 56 41.109375 55.140625 
Q 45.0625 54.296875 48.78125 52.59375 
z
" id="DejaVuSans-99"/>
    <path d="M 8.5 21.578125 
L 8.5 54.6875 
L 17.484375 54.6875 
L 17.484375 21.921875 
Q 17.484375 14.15625 20.5 10.265625 
Q 23.53125 6.390625 29.59375 6.390625 
Q 36.859375 6.390625 41.078125 11.03125 
Q 45.3125 15.671875 45.3125 23.6875 
L 45.3125 54.6875 
L 54.296875 54.6875 
L 54.296875 0 
L 45.3125 0 
L 45.3125 8.40625 
Q 42.046875 3.421875 37.71875 1 
Q 33.40625 -1.421875 27.6875 -1.421875 
Q 18.265625 -1.421875 13.375 4.4375 
Q 8.5 10.296875 8.5 21.578125 
z
M 31.109375 56 
z
" id="DejaVuSans-117"/>
    <path d="M 41.109375 46.296875 
Q 39.59375 47.171875 37.8125 47.578125 
Q 36.03125 48 33.890625 48 
Q 26.265625 48 22.1875 43.046875 
Q 18.109375 38.09375 18.109375 28.8125 
L 18.109375 0 
L 9.078125 0 
L 9.078125 54.6875 
L 18.109375 54.6875 
L 18.109375 46.1875 
Q 20.953125 51.171875 25.484375 53.578125 
Q 30.03125 56 36.53125 56 
Q 37.453125 56 38.578125 55.875 
Q 39.703125 55.765625 41.0625 55.515625 
z
" id="DejaVuSans-114"/>
    <path d="M 32.171875 -5.078125 
Q 28.375 -14.84375 24.75 -17.8125 
Q 21.140625 -20.796875 15.09375 -20.796875 
L 7.90625 -20.796875 
L 7.90625 -13.28125 
L 13.1875 -13.28125 
Q 16.890625 -13.28125 18.9375 -11.515625 
Q 21 -9.765625 23.484375 -3.21875 
L 25.09375 0.875 
L 2.984375 54.6875 
L 12.5 54.6875 
L 29.59375 11.921875 
L 46.6875 54.6875 
L 56.203125 54.6875 
z
" id="DejaVuSans-121"/>
    <path id="DejaVuSans-32"/>
    <path d="M 30.609375 48.390625 
Q 23.390625 48.390625 19.1875 42.75 
Q 14.984375 37.109375 14.984375 27.296875 
Q 14.984375 17.484375 19.15625 11.84375 
Q 23.34375 6.203125 30.609375 6.203125 
Q 37.796875 6.203125 41.984375 11.859375 
Q 46.1875 17.53125 46.1875 27.296875 
Q 46.1875 37.015625 41.984375 42.703125 
Q 37.796875 48.390625 30.609375 48.390625 
z
M 30.609375 56 
Q 42.328125 56 49.015625 48.375 
Q 55.71875 40.765625 55.71875 27.296875 
Q 55.71875 13.875 49.015625 6.21875 
Q 42.328125 -1.421875 30.609375 -1.421875 
Q 18.84375 -1.421875 12.171875 6.21875 
Q 5.515625 13.875 5.515625 27.296875 
Q 5.515625 40.765625 12.171875 48.375 
Q 18.84375 56 30.609375 56 
z
" id="DejaVuSans-111"/>
    <path d="M 2.984375 54.6875 
L 12.5 54.6875 
L 29.59375 8.796875 
L 46.6875 54.6875 
L 56.203125 54.6875 
L 35.6875 0 
L 23.484375 0 
z
" id="DejaVuSans-118"/>
    <path d="M 45.40625 27.984375 
Q 45.40625 37.75 41.375 43.109375 
Q 37.359375 48.484375 30.078125 48.484375 
Q 22.859375 48.484375 18.828125 43.109375 
Q 14.796875 37.75 14.796875 27.984375 
Q 14.796875 18.265625 18.828125 12.890625 
Q 22.859375 7.515625 30.078125 7.515625 
Q 37.359375 7.515625 41.375 12.890625 
Q 45.40625 18.265625 45.40625 27.984375 
z
M 54.390625 6.78125 
Q 54.390625 -7.171875 48.1875 -13.984375 
Q 42 -20.796875 29.203125 -20.796875 
Q 24.46875 -20.796875 20.265625 -20.09375 
Q 16.0625 -19.390625 12.109375 -17.921875 
L 12.109375 -9.1875 
Q 16.0625 -11.328125 19.921875 -12.34375 
Q 23.78125 -13.375 27.78125 -13.375 
Q 36.625 -13.375 41.015625 -8.765625 
Q 45.40625 -4.15625 45.40625 5.171875 
L 45.40625 9.625 
Q 42.625 4.78125 38.28125 2.390625 
Q 33.9375 0 27.875 0 
Q 17.828125 0 11.671875 7.65625 
Q 5.515625 15.328125 5.515625 27.984375 
Q 5.515625 40.671875 11.671875 48.328125 
Q 17.828125 56 27.875 56 
Q 33.9375 56 38.28125 53.609375 
Q 42.625 51.21875 45.40625 46.390625 
L 45.40625 54.6875 
L 54.390625 54.6875 
z
" id="DejaVuSans-103"/>
    <path d="M 18.3125 70.21875 
L 18.3125 54.6875 
L 36.8125 54.6875 
L 36.8125 47.703125 
L 18.3125 47.703125 
L 18.3125 18.015625 
Q 18.3125 11.328125 20.140625 9.421875 
Q 21.96875 7.515625 27.59375 7.515625 
L 36.8125 7.515625 
L 36.8125 0 
L 27.59375 0 
Q 17.1875 0 13.234375 3.875 
Q 9.28125 7.765625 9.28125 18.015625 
L 9.28125 47.703125 
L 2.6875 47.703125 
L 2.6875 54.6875 
L 9.28125 54.6875 
L 9.28125 70.21875 
z
" id="DejaVuSans-116"/>
    <path d="M 44.28125 53.078125 
L 44.28125 44.578125 
Q 40.484375 46.53125 36.375 47.5 
Q 32.28125 48.484375 27.875 48.484375 
Q 21.1875 48.484375 17.84375 46.4375 
Q 14.5 44.390625 14.5 40.28125 
Q 14.5 37.15625 16.890625 35.375 
Q 19.28125 33.59375 26.515625 31.984375 
L 29.59375 31.296875 
Q 39.15625 29.25 43.1875 25.515625 
Q 47.21875 21.78125 47.21875 15.09375 
Q 47.21875 7.46875 41.1875 3.015625 
Q 35.15625 -1.421875 24.609375 -1.421875 
Q 20.21875 -1.421875 15.453125 -0.5625 
Q 10.6875 0.296875 5.421875 2 
L 5.421875 11.28125 
Q 10.40625 8.6875 15.234375 7.390625 
Q 20.0625 6.109375 24.8125 6.109375 
Q 31.15625 6.109375 34.5625 8.28125 
Q 37.984375 10.453125 37.984375 14.40625 
Q 37.984375 18.0625 35.515625 20.015625 
Q 33.0625 21.96875 24.703125 23.78125 
L 21.578125 24.515625 
Q 13.234375 26.265625 9.515625 29.90625 
Q 5.8125 33.546875 5.8125 39.890625 
Q 5.8125 47.609375 11.28125 51.796875 
Q 16.75 56 26.8125 56 
Q 31.78125 56 36.171875 55.265625 
Q 40.578125 54.546875 44.28125 53.078125 
z
" id="DejaVuSans-115"/>
   </defs>
   <g transform="translate(132.309375 16.030125)scale(0.12 -0.12)">
    <use xlink:href="#DejaVuSans-97"/>
    <use x="61.279297" xlink:href="#DejaVuSans-99"/>
    <use x="116.259766" xlink:href="#DejaVuSans-99"/>
    <use x="171.240234" xlink:href="#DejaVuSans-117"/>
    <use x="234.619141" xlink:href="#DejaVuSans-114"/>
    <use x="275.732422" xlink:href="#DejaVuSans-97"/>
    <use x="337.011719" xlink:href="#DejaVuSans-99"/>
    <use x="391.992188" xlink:href="#DejaVuSans-121"/>
    <use x="436.921875" xlink:href="#DejaVuSans-46"/>
    <use x="468.708984" xlink:href="#DejaVuSans-109"/>
    <use x="566.121094" xlink:href="#DejaVuSans-101"/>
    <use x="627.644531" xlink:href="#DejaVuSans-97"/>
    <use x="688.923828" xlink:href="#DejaVuSans-110"/>
    <use x="752.302734" xlink:href="#DejaVuSans-32"/>
    <use x="784.089844" xlink:href="#DejaVuSans-111"/>
    <use x="845.271484" xlink:href="#DejaVuSans-118"/>
    <use x="904.451172" xlink:href="#DejaVuSans-101"/>
    <use x="965.974609" xlink:href="#DejaVuSans-114"/>
    <use x="1007.087891" xlink:href="#DejaVuSans-32"/>
    <use x="1038.875" xlink:href="#DejaVuSans-103"/>
    <use x="1102.351562" xlink:href="#DejaVuSans-101"/>
    <use x="1163.875" xlink:href="#DejaVuSans-110"/>
    <use x="1227.253906" xlink:href="#DejaVuSans-101"/>
    <use x="1288.777344" xlink:href="#DejaVuSans-114"/>
    <use x="1329.890625" xlink:href="#DejaVuSans-97"/>
    <use x="1391.169922" xlink:href="#DejaVuSans-116"/>
    <use x="1430.378906" xlink:href="#DejaVuSans-105"/>
    <use x="1458.162109" xlink:href="#DejaVuSans-111"/>
    <use x="1519.34375" xlink:href="#DejaVuSans-110"/>
    <use x="1582.722656" xlink:href="#DejaVuSans-115"/>
   </g>
  </g>
 </g>
 <defs>
  <clipPath id="p8da5c37a28">
   <rect height="266.112" width="357.12" x="57.6" y="41.472"/>
  </clipPath>
 </defs>
</svg>
