<?xml version="1.0" encoding="utf-8" standalone="no"?>
<!DOCTYPE svg PUBLIC "-//W3C//DTD SVG 1.1//EN"
  "http://www.w3.org/Graphics/SVG/1.1/DTD/svg11.dtd">
<!-- Created with matplotlib (https://matplotlib.org/) -->
<svg height="345.6pt" version="1.1" viewBox="0 0 460.8 345.6" width="460.8pt" xmlns="http://www.w3.org/2000/svg" xmlns:xlink="http://www.w3.org/1999/xlink">
 <defs>
  <style type="text/css">
*{stroke-linecap:butt;stroke-linejoin:round;}
  </style>
 </defs>
 <g id="figure_1">
  <g id="patch_1">
   <path d="M 0 345.6 
L 460.8 345.6 
L 460.8 0 
L 0 0 
z
" style="fill:#ffffff;"/>
  </g>
  <g id="axes_1">
   <g id="patch_2">
    <path d="M 57.6 307.584 
L 414.72 307.584 
L 414.72 41.472 
L 57.6 41.472 
z
" style="fill:#ffffff;"/>
   </g>
   <g id="PolyCollection_1">
    <path clip-path="url(#pbf07b8507b)" d="M 73.832727 286.098087 
L 73.832727 287.362667 
L 75.464157 288.20521 
L 77.095587 289.165776 
L 78.727017 289.385089 
L 80.358447 289.569709 
L 81.989877 289.424849 
L 83.621307 289.948824 
L 85.252736 289.376973 
L 86.884166 291.130556 
L 88.515596 290.489214 
L 90.147026 290.341203 
L 91.778456 288.649039 
L 93.409886 289.408742 
L 95.041316 290.311432 
L 96.672746 291.447702 
L 98.304175 290.104253 
L 99.935605 288.854155 
L 101.567035 289.439607 
L 103.198465 291.200076 
L 104.829895 291.559239 
L 106.461325 291.436763 
L 108.092755 290.633515 
L 109.724185 291.139857 
L 111.355614 290.934408 
L 112.987044 290.759094 
L 114.618474 291.653112 
L 116.249904 291.062688 
L 117.881334 291.367904 
L 119.512764 291.732622 
L 121.144194 289.630351 
L 122.775624 289.490614 
L 124.407053 289.250231 
L 126.038483 290.189048 
L 127.669913 291.539904 
L 129.301343 291.392386 
L 130.932773 290.203257 
L 132.564203 290.663346 
L 134.195633 290.49389 
L 135.827063 292.776746 
L 137.458492 291.264964 
L 139.089922 290.257775 
L 140.721352 290.623114 
L 142.352782 291.422292 
L 143.984212 289.103447 
L 145.615642 292.957823 
L 147.247072 291.324094 
L 148.878502 291.826633 
L 150.509931 290.334721 
L 152.141361 291.049087 
L 153.772791 292.179174 
L 155.404221 290.984615 
L 157.035651 291.419253 
L 158.667081 289.974877 
L 160.298511 291.864462 
L 161.929941 291.06935 
L 163.56137 292.379276 
L 165.1928 291.948266 
L 166.82423 291.950595 
L 168.45566 290.695743 
L 170.08709 292.184936 
L 171.71852 291.245788 
L 173.34995 293.003063 
L 174.98138 291.251289 
L 176.61281 290.439758 
L 178.244239 291.471847 
L 179.875669 289.59663 
L 181.507099 291.670627 
L 183.138529 289.607884 
L 184.769959 290.931157 
L 186.401389 290.668785 
L 188.032819 292.703243 
L 189.664249 293.179933 
L 191.295678 293.298033 
L 192.927108 293.066651 
L 194.558538 291.35383 
L 196.189968 292.128317 
L 197.821398 289.984296 
L 199.452828 292.762271 
L 201.084258 292.865224 
L 202.715688 293.053396 
L 204.347117 292.833865 
L 205.978547 292.933497 
L 207.609977 291.218407 
L 209.241407 291.662612 
L 210.872837 293.271108 
L 212.504267 292.771307 
L 214.135697 293.062848 
L 215.767127 292.247075 
L 217.398556 291.861374 
L 219.029986 291.565476 
L 220.661416 291.626272 
L 222.292846 292.921416 
L 223.924276 290.586597 
L 225.555706 290.790591 
L 227.187136 289.979522 
L 228.818566 292.419318 
L 230.449995 291.396565 
L 232.081425 291.733916 
L 233.712855 292.56898 
L 235.344285 291.49609 
L 236.975715 291.950399 
L 238.607145 290.705908 
L 240.238575 292.973192 
L 241.870005 292.480934 
L 243.501434 292.629494 
L 245.132864 292.97724 
L 246.764294 292.354597 
L 248.395724 290.38218 
L 250.027154 290.740192 
L 251.658584 291.365297 
L 253.290014 292.253626 
L 254.921444 292.716788 
L 256.552873 291.282686 
L 258.184303 290.34548 
L 259.815733 292.732446 
L 261.447163 292.89606 
L 263.078593 288.947792 
L 264.710023 292.151036 
L 266.341453 290.851966 
L 267.972883 293.377639 
L 269.604312 292.826494 
L 271.235742 290.975973 
L 272.867172 292.9756 
L 274.498602 292.298823 
L 276.130032 291.872266 
L 277.761462 292.11573 
L 279.392892 291.278853 
L 281.024322 293.368793 
L 282.655751 292.491046 
L 284.287181 290.118834 
L 285.918611 290.380442 
L 287.550041 293.19074 
L 289.181471 292.13719 
L 290.812901 289.909277 
L 292.444331 290.188478 
L 294.075761 289.896094 
L 295.70719 292.876539 
L 297.33862 291.551524 
L 298.97005 290.180928 
L 300.60148 290.355323 
L 302.23291 290.27498 
L 303.86434 291.254988 
L 305.49577 290.40459 
L 307.1272 292.727444 
L 308.75863 292.600246 
L 310.390059 293.257519 
L 312.021489 292.966646 
L 313.652919 292.599385 
L 315.284349 291.604428 
L 316.915779 288.774237 
L 318.547209 290.26736 
L 320.178639 288.211447 
L 321.810069 290.372263 
L 323.441498 292.761899 
L 325.072928 290.285324 
L 326.704358 292.501452 
L 328.335788 292.586002 
L 329.967218 292.329419 
L 331.598648 293.224925 
L 333.230078 293.091462 
L 334.861508 293.600399 
L 336.492937 292.412034 
L 338.124367 293.421078 
L 339.755797 293.836141 
L 341.387227 293.510919 
L 343.018657 292.899762 
L 344.650087 294.004154 
L 346.281517 292.280222 
L 347.912947 291.073504 
L 349.544376 293.023514 
L 351.175806 292.376227 
L 352.807236 293.863592 
L 354.438666 292.110654 
L 356.070096 291.238627 
L 357.701526 292.969363 
L 359.332956 292.649679 
L 360.964386 293.955571 
L 362.595815 293.009374 
L 364.227245 293.457015 
L 365.858675 295.311735 
L 367.490105 292.484961 
L 369.121535 293.042013 
L 370.752965 294.107356 
L 372.384395 294.196287 
L 374.015825 293.194446 
L 375.647254 292.79857 
L 377.278684 293.948399 
L 378.910114 294.378546 
L 380.541544 294.544114 
L 382.172974 293.254997 
L 383.804404 294.258916 
L 385.435834 293.38885 
L 387.067264 291.337883 
L 388.698693 293.242862 
L 390.330123 291.02407 
L 391.961553 293.545649 
L 393.592983 292.815766 
L 395.224413 292.643624 
L 396.855843 294.376602 
L 398.487273 294.923422 
L 398.487273 288.45573 
L 398.487273 288.45573 
L 396.855843 278.61994 
L 395.224413 260.618946 
L 393.592983 288.57848 
L 391.961553 252.735613 
L 390.330123 283.008005 
L 388.698693 281.328614 
L 387.067264 191.529975 
L 385.435834 264.691507 
L 383.804404 280.463374 
L 382.172974 275.337529 
L 380.541544 266.132555 
L 378.910114 283.061777 
L 377.278684 282.04722 
L 375.647254 271.38939 
L 374.015825 246.932975 
L 372.384395 236.720503 
L 370.752965 271.749417 
L 369.121535 199.805988 
L 367.490105 217.461893 
L 365.858675 268.134937 
L 364.227245 243.386332 
L 362.595815 274.630624 
L 360.964386 229.48577 
L 359.332956 283.28617 
L 357.701526 274.735434 
L 356.070096 269.60445 
L 354.438666 286.977397 
L 352.807236 249.607697 
L 351.175806 283.735036 
L 349.544376 272.656397 
L 347.912947 280.99072 
L 346.281517 276.038245 
L 344.650087 274.876356 
L 343.018657 287.872068 
L 341.387227 286.309538 
L 339.755797 272.745991 
L 338.124367 254.266462 
L 336.492937 243.392799 
L 334.861508 273.022686 
L 333.230078 239.371982 
L 331.598648 209.474069 
L 329.967218 283.347787 
L 328.335788 264.082918 
L 326.704358 219.965969 
L 325.072928 193.754929 
L 323.441498 286.120413 
L 321.810069 217.978264 
L 320.178639 202.022347 
L 318.547209 245.046376 
L 316.915779 222.812808 
L 315.284349 249.941011 
L 313.652919 264.188306 
L 312.021489 280.422782 
L 310.390059 274.090434 
L 308.75863 253.708799 
L 307.1272 256.139948 
L 305.49577 226.757127 
L 303.86434 219.254748 
L 302.23291 263.396874 
L 300.60148 282.546911 
L 298.97005 239.105083 
L 297.33862 182.102717 
L 295.70719 277.135208 
L 294.075761 192.097398 
L 292.444331 253.453616 
L 290.812901 274.053934 
L 289.181471 283.037129 
L 287.550041 247.628884 
L 285.918611 261.573031 
L 284.287181 259.633341 
L 282.655751 224.228179 
L 281.024322 271.179646 
L 279.392892 224.22378 
L 277.761462 267.615702 
L 276.130032 281.970161 
L 274.498602 281.073081 
L 272.867172 224.273528 
L 271.235742 232.801479 
L 269.604312 275.970217 
L 267.972883 282.906098 
L 266.341453 284.504121 
L 264.710023 245.171221 
L 263.078593 198.221336 
L 261.447163 169.56449 
L 259.815733 283.458849 
L 258.184303 279.857252 
L 256.552873 268.95642 
L 254.921444 274.348452 
L 253.290014 257.8755 
L 251.658584 277.913594 
L 250.027154 264.54536 
L 248.395724 214.789416 
L 246.764294 274.513591 
L 245.132864 283.825215 
L 243.501434 278.445011 
L 241.870005 279.495943 
L 240.238575 241.359767 
L 238.607145 260.809164 
L 236.975715 285.994993 
L 235.344285 246.221202 
L 233.712855 237.523113 
L 232.081425 280.721764 
L 230.449995 284.943284 
L 228.818566 256.47336 
L 227.187136 186.774424 
L 225.555706 252.66595 
L 223.924276 249.151504 
L 222.292846 282.083884 
L 220.661416 282.952952 
L 219.029986 264.525379 
L 217.398556 219.071636 
L 215.767127 253.688959 
L 214.135697 281.31613 
L 212.504267 278.922043 
L 210.872837 265.540344 
L 209.241407 281.799168 
L 207.609977 227.479802 
L 205.978547 277.694994 
L 204.347117 284.124823 
L 202.715688 284.762077 
L 201.084258 277.343362 
L 199.452828 271.408596 
L 197.821398 243.763562 
L 196.189968 278.483271 
L 194.558538 278.369497 
L 192.927108 271.271171 
L 191.295678 263.165363 
L 189.664249 234.633377 
L 188.032819 273.297932 
L 186.401389 233.284714 
L 184.769959 268.424109 
L 183.138529 226.11424 
L 181.507099 285.053422 
L 179.875669 247.066582 
L 178.244239 251.330881 
L 176.61281 261.312313 
L 174.98138 278.639133 
L 173.34995 270.872881 
L 171.71852 248.998346 
L 170.08709 278.917721 
L 168.45566 279.11845 
L 166.82423 280.792591 
L 165.1928 263.952288 
L 163.56137 260.589701 
L 161.929941 257.261478 
L 160.298511 269.384141 
L 158.667081 248.674424 
L 157.035651 242.442458 
L 155.404221 282.39356 
L 153.772791 277.522853 
L 152.141361 273.60068 
L 150.509931 249.064916 
L 148.878502 280.50186 
L 147.247072 267.128289 
L 145.615642 268.042516 
L 143.984212 244.718768 
L 142.352782 269.06188 
L 140.721352 267.221166 
L 139.089922 265.188496 
L 137.458492 267.407277 
L 135.827063 275.352377 
L 134.195633 246.4872 
L 132.564203 277.553168 
L 130.932773 261.653452 
L 129.301343 244.147814 
L 127.669913 278.712787 
L 126.038483 264.434215 
L 124.407053 275.507989 
L 122.775624 262.487368 
L 121.144194 275.712751 
L 119.512764 286.2567 
L 117.881334 273.606244 
L 116.249904 274.472946 
L 114.618474 284.323797 
L 112.987044 276.062349 
L 111.355614 255.089071 
L 109.724185 278.222716 
L 108.092755 275.162467 
L 106.461325 250.191744 
L 104.829895 268.687538 
L 103.198465 265.419122 
L 101.567035 265.931654 
L 99.935605 262.332794 
L 98.304175 266.880167 
L 96.672746 276.021149 
L 95.041316 281.735604 
L 93.409886 273.866772 
L 91.778456 266.02574 
L 90.147026 284.390121 
L 88.515596 286.051265 
L 86.884166 285.557599 
L 85.252736 283.555746 
L 83.621307 284.655658 
L 81.989877 286.250199 
L 80.358447 285.92207 
L 78.727017 286.965024 
L 77.095587 287.319946 
L 75.464157 286.32018 
L 73.832727 286.098087 
z
" style="fill:#1f77b4;fill-opacity:0.2;"/>
   </g>
   <g id="PolyCollection_2">
    <path clip-path="url(#pbf07b8507b)" d="M 73.832727 239.403793 
L 73.832727 288.149279 
L 75.464157 289.966823 
L 77.095587 289.966439 
L 78.727017 290.749038 
L 80.358447 291.07889 
L 81.989877 291.512074 
L 83.621307 291.57665 
L 85.252736 291.879987 
L 86.884166 291.864699 
L 88.515596 291.852633 
L 90.147026 291.905954 
L 91.778456 292.366806 
L 93.409886 292.561017 
L 95.041316 292.543188 
L 96.672746 293.297079 
L 98.304175 292.745158 
L 99.935605 292.855083 
L 101.567035 293.293506 
L 103.198465 292.724612 
L 104.829895 292.841636 
L 106.461325 292.838337 
L 108.092755 293.063361 
L 109.724185 292.904529 
L 111.355614 292.669789 
L 112.987044 292.698222 
L 114.618474 293.240298 
L 116.249904 292.629378 
L 117.881334 292.627225 
L 119.512764 292.969839 
L 121.144194 292.588753 
L 122.775624 292.560529 
L 124.407053 292.548601 
L 126.038483 292.51704 
L 127.669913 293.294723 
L 129.301343 292.574049 
L 130.932773 293.432686 
L 132.564203 292.383218 
L 134.195633 292.450945 
L 135.827063 293.719729 
L 137.458492 292.934004 
L 139.089922 292.868056 
L 140.721352 292.951276 
L 142.352782 292.970302 
L 143.984212 293.120289 
L 145.615642 293.530397 
L 147.247072 294.138538 
L 148.878502 293.686957 
L 150.509931 292.595826 
L 152.141361 292.859037 
L 153.772791 294.137705 
L 155.404221 292.705975 
L 157.035651 293.275674 
L 158.667081 292.949995 
L 160.298511 293.794891 
L 161.929941 293.185201 
L 163.56137 293.579783 
L 165.1928 293.736168 
L 166.82423 293.642332 
L 168.45566 293.030762 
L 170.08709 293.576356 
L 171.71852 293.779172 
L 173.34995 293.894273 
L 174.98138 293.062463 
L 176.61281 293.214947 
L 178.244239 293.390142 
L 179.875669 293.353498 
L 181.507099 293.345822 
L 183.138529 293.295099 
L 184.769959 293.286676 
L 186.401389 293.337103 
L 188.032819 293.416909 
L 189.664249 293.851813 
L 191.295678 294.513326 
L 192.927108 294.104514 
L 194.558538 293.146375 
L 196.189968 293.113004 
L 197.821398 294.042704 
L 199.452828 293.508113 
L 201.084258 294.279547 
L 202.715688 293.54273 
L 204.347117 294.007563 
L 205.978547 293.553348 
L 207.609977 293.675236 
L 209.241407 293.447158 
L 210.872837 293.950762 
L 212.504267 293.552938 
L 214.135697 294.505889 
L 215.767127 293.559803 
L 217.398556 294.01338 
L 219.029986 293.428655 
L 220.661416 293.242923 
L 222.292846 293.29003 
L 223.924276 293.25139 
L 225.555706 293.218668 
L 227.187136 293.156983 
L 228.818566 294.035932 
L 230.449995 293.665973 
L 232.081425 293.651197 
L 233.712855 294.005047 
L 235.344285 293.487206 
L 236.975715 293.283645 
L 238.607145 293.272123 
L 240.238575 294.050167 
L 241.870005 293.32459 
L 243.501434 294.098718 
L 245.132864 293.517355 
L 246.764294 293.667853 
L 248.395724 293.236103 
L 250.027154 293.223939 
L 251.658584 293.213627 
L 253.290014 294.083141 
L 254.921444 293.266243 
L 256.552873 293.225832 
L 258.184303 293.148288 
L 259.815733 293.250336 
L 261.447163 293.861899 
L 263.078593 293.471374 
L 264.710023 294.220953 
L 266.341453 293.064077 
L 267.972883 294.357878 
L 269.604312 294.665496 
L 271.235742 294.059515 
L 272.867172 293.684833 
L 274.498602 293.652464 
L 276.130032 293.39003 
L 277.761462 293.379188 
L 279.392892 293.346683 
L 281.024322 293.949571 
L 282.655751 293.49611 
L 284.287181 293.45911 
L 285.918611 294.21344 
L 287.550041 293.939068 
L 289.181471 293.827376 
L 290.812901 293.764186 
L 292.444331 293.764314 
L 294.075761 294.048913 
L 295.70719 293.749827 
L 297.33862 293.715108 
L 298.97005 293.691434 
L 300.60148 293.645559 
L 302.23291 293.585998 
L 303.86434 293.613901 
L 305.49577 293.4109 
L 307.1272 293.859846 
L 308.75863 294.144438 
L 310.390059 293.604734 
L 312.021489 293.742553 
L 313.652919 293.368588 
L 315.284349 293.539732 
L 316.915779 293.232814 
L 318.547209 293.23067 
L 320.178639 293.189166 
L 321.810069 293.668063 
L 323.441498 293.255812 
L 325.072928 293.27562 
L 326.704358 293.785882 
L 328.335788 293.433687 
L 329.967218 293.418326 
L 331.598648 293.766534 
L 333.230078 293.783003 
L 334.861508 294.954963 
L 336.492937 293.821271 
L 338.124367 293.81486 
L 339.755797 294.331636 
L 341.387227 293.696931 
L 343.018657 293.664086 
L 344.650087 294.333508 
L 346.281517 293.290706 
L 347.912947 293.226254 
L 349.544376 293.225244 
L 351.175806 293.210267 
L 352.807236 294.25968 
L 354.438666 293.323774 
L 356.070096 293.630477 
L 357.701526 293.504428 
L 359.332956 293.327132 
L 360.964386 294.702286 
L 362.595815 293.638009 
L 364.227245 294.06002 
L 365.858675 295.488 
L 367.490105 293.878231 
L 369.121535 293.898403 
L 370.752965 294.197301 
L 372.384395 295.199814 
L 374.015825 294.076069 
L 375.647254 294.026417 
L 377.278684 294.261224 
L 378.910114 295.072675 
L 380.541544 294.864528 
L 382.172974 294.398082 
L 383.804404 294.677148 
L 385.435834 293.78913 
L 387.067264 294.509159 
L 388.698693 293.589375 
L 390.330123 293.473531 
L 391.961553 293.95255 
L 393.592983 293.614446 
L 395.224413 293.581916 
L 396.855843 295.124857 
L 398.487273 294.958598 
L 398.487273 160.401558 
L 398.487273 160.401558 
L 396.855843 72.565598 
L 395.224413 95.881926 
L 393.592983 204.943421 
L 391.961553 55.32121 
L 390.330123 55.32121 
L 388.698693 183.924104 
L 387.067264 75.122214 
L 385.435834 132.708919 
L 383.804404 143.138304 
L 382.172974 55.32121 
L 380.541544 55.32121 
L 378.910114 107.76414 
L 377.278684 198.350075 
L 375.647254 131.922437 
L 374.015825 100.64355 
L 372.384395 55.32121 
L 370.752965 81.444032 
L 369.121535 147.929276 
L 367.490105 55.32121 
L 365.858675 57.220548 
L 364.227245 55.32121 
L 362.595815 97.109702 
L 360.964386 55.32121 
L 359.332956 55.523812 
L 357.701526 86.332922 
L 356.070096 108.582995 
L 354.438666 215.322057 
L 352.807236 152.962141 
L 351.175806 221.761818 
L 349.544376 76.290544 
L 347.912947 220.824642 
L 346.281517 136.411514 
L 344.650087 188.34776 
L 343.018657 169.654203 
L 341.387227 96.407803 
L 339.755797 63.230534 
L 338.124367 55.32121 
L 336.492937 55.32121 
L 334.861508 69.383367 
L 333.230078 84.19219 
L 331.598648 144.99523 
L 329.967218 55.32121 
L 328.335788 141.844316 
L 326.704358 55.32121 
L 325.072928 92.921828 
L 323.441498 218.867696 
L 321.810069 55.779929 
L 320.178639 123.373466 
L 318.547209 55.32121 
L 316.915779 55.32121 
L 315.284349 193.444238 
L 313.652919 213.92262 
L 312.021489 110.286243 
L 310.390059 98.060524 
L 308.75863 55.460364 
L 307.1272 55.32121 
L 305.49577 55.32121 
L 303.86434 97.793183 
L 302.23291 71.888432 
L 300.60148 170.402204 
L 298.97005 111.583588 
L 297.33862 55.32121 
L 295.70719 139.457357 
L 294.075761 55.451167 
L 292.444331 60.988432 
L 290.812901 216.257979 
L 289.181471 100.372925 
L 287.550041 55.32121 
L 285.918611 57.407433 
L 284.287181 190.92465 
L 282.655751 100.145975 
L 281.024322 55.32121 
L 279.392892 125.41873 
L 277.761462 168.291455 
L 276.130032 101.593872 
L 274.498602 195.149228 
L 272.867172 110.205025 
L 271.235742 108.724562 
L 269.604312 59.330898 
L 267.972883 55.160389 
L 266.341453 151.135285 
L 264.710023 86.964454 
L 263.078593 178.497382 
L 261.447163 60.858739 
L 259.815733 212.098017 
L 258.184303 136.134612 
L 256.552873 70.561772 
L 254.921444 106.537495 
L 253.290014 56.255435 
L 251.658584 124.466465 
L 250.027154 80.007718 
L 248.395724 161.831201 
L 246.764294 93.943256 
L 245.132864 97.069217 
L 243.501434 148.247819 
L 241.870005 214.555448 
L 240.238575 55.32121 
L 238.607145 109.616847 
L 236.975715 55.32121 
L 235.344285 55.32121 
L 233.712855 149.468883 
L 232.081425 55.32121 
L 230.449995 100.433816 
L 228.818566 55.32121 
L 227.187136 57.719127 
L 225.555706 99.723333 
L 223.924276 139.381724 
L 222.292846 105.932282 
L 220.661416 201.882655 
L 219.029986 55.391456 
L 217.398556 75.687976 
L 215.767127 211.414209 
L 214.135697 54.867541 
L 212.504267 55.32121 
L 210.872837 62.114711 
L 209.241407 53.568 
L 207.609977 55.32121 
L 205.978547 107.144196 
L 204.347117 102.039658 
L 202.715688 197.721547 
L 201.084258 55.32121 
L 199.452828 55.32121 
L 197.821398 55.32121 
L 196.189968 166.186334 
L 194.558538 55.32121 
L 192.927108 73.819289 
L 191.295678 55.32121 
L 189.664249 55.32121 
L 188.032819 125.190997 
L 186.401389 101.9211 
L 184.769959 55.32121 
L 183.138529 134.838414 
L 181.507099 195.270623 
L 179.875669 58.515143 
L 178.244239 55.363506 
L 176.61281 95.639169 
L 174.98138 55.32121 
L 173.34995 55.32121 
L 171.71852 56.978088 
L 170.08709 55.849905 
L 168.45566 232.378085 
L 166.82423 98.720949 
L 165.1928 90.420754 
L 163.56137 97.978005 
L 161.929941 55.32121 
L 160.298511 55.32121 
L 158.667081 58.646164 
L 157.035651 55.32121 
L 155.404221 100.287496 
L 153.772791 68.535651 
L 152.141361 55.32121 
L 150.509931 61.390685 
L 148.878502 55.32121 
L 147.247072 55.32121 
L 145.615642 101.420582 
L 143.984212 64.851123 
L 142.352782 83.757177 
L 140.721352 106.987847 
L 139.089922 206.246774 
L 137.458492 58.370651 
L 135.827063 67.199861 
L 134.195633 57.409123 
L 132.564203 55.32121 
L 130.932773 55.32121 
L 129.301343 55.32121 
L 127.669913 55.32121 
L 126.038483 55.32121 
L 124.407053 88.091136 
L 122.775624 56.140404 
L 121.144194 55.32121 
L 119.512764 55.32121 
L 117.881334 105.319395 
L 116.249904 109.985447 
L 114.618474 103.802596 
L 112.987044 55.423414 
L 111.355614 55.32121 
L 109.724185 55.32121 
L 108.092755 56.038418 
L 106.461325 55.32121 
L 104.829895 55.32121 
L 103.198465 97.006632 
L 101.567035 55.32121 
L 99.935605 124.308921 
L 98.304175 65.363952 
L 96.672746 55.32121 
L 95.041316 55.32121 
L 93.409886 55.32121 
L 91.778456 55.32121 
L 90.147026 83.448498 
L 88.515596 128.888424 
L 86.884166 125.52776 
L 85.252736 158.431536 
L 83.621307 186.882261 
L 81.989877 63.040528 
L 80.358447 128.282508 
L 78.727017 273.043699 
L 77.095587 263.767468 
L 75.464157 269.052689 
L 73.832727 239.403793 
z
" style="fill:#1f77b4;fill-opacity:0.1;"/>
   </g>
   <g id="matplotlib.axis_1">
    <g id="xtick_1">
     <g id="line2d_1">
      <defs>
       <path d="M 0 0 
L 0 3.5 
" id="m524eb7422e" style="stroke:#000000;stroke-width:0.8;"/>
      </defs>
      <g>
       <use style="stroke:#000000;stroke-width:0.8;" x="73.832727" xlink:href="#m524eb7422e" y="307.584"/>
      </g>
     </g>
     <g id="text_1">
      <!-- 0 -->
      <defs>
       <path d="M 31.78125 66.40625 
Q 24.171875 66.40625 20.328125 58.90625 
Q 16.5 51.421875 16.5 36.375 
Q 16.5 21.390625 20.328125 13.890625 
Q 24.171875 6.390625 31.78125 6.390625 
Q 39.453125 6.390625 43.28125 13.890625 
Q 47.125 21.390625 47.125 36.375 
Q 47.125 51.421875 43.28125 58.90625 
Q 39.453125 66.40625 31.78125 66.40625 
z
M 31.78125 74.21875 
Q 44.046875 74.21875 50.515625 64.515625 
Q 56.984375 54.828125 56.984375 36.375 
Q 56.984375 17.96875 50.515625 8.265625 
Q 44.046875 -1.421875 31.78125 -1.421875 
Q 19.53125 -1.421875 13.0625 8.265625 
Q 6.59375 17.96875 6.59375 36.375 
Q 6.59375 54.828125 13.0625 64.515625 
Q 19.53125 74.21875 31.78125 74.21875 
z
" id="DejaVuSans-48"/>
      </defs>
      <g transform="translate(70.651477 322.182437)scale(0.1 -0.1)">
       <use xlink:href="#DejaVuSans-48"/>
      </g>
     </g>
    </g>
    <g id="xtick_2">
     <g id="line2d_2">
      <g>
       <use style="stroke:#000000;stroke-width:0.8;" x="114.618474" xlink:href="#m524eb7422e" y="307.584"/>
      </g>
     </g>
     <g id="text_2">
      <!-- 25 -->
      <defs>
       <path d="M 19.1875 8.296875 
L 53.609375 8.296875 
L 53.609375 0 
L 7.328125 0 
L 7.328125 8.296875 
Q 12.9375 14.109375 22.625 23.890625 
Q 32.328125 33.6875 34.8125 36.53125 
Q 39.546875 41.84375 41.421875 45.53125 
Q 43.3125 49.21875 43.3125 52.78125 
Q 43.3125 58.59375 39.234375 62.25 
Q 35.15625 65.921875 28.609375 65.921875 
Q 23.96875 65.921875 18.8125 64.3125 
Q 13.671875 62.703125 7.8125 59.421875 
L 7.8125 69.390625 
Q 13.765625 71.78125 18.9375 73 
Q 24.125 74.21875 28.421875 74.21875 
Q 39.75 74.21875 46.484375 68.546875 
Q 53.21875 62.890625 53.21875 53.421875 
Q 53.21875 48.921875 51.53125 44.890625 
Q 49.859375 40.875 45.40625 35.40625 
Q 44.1875 33.984375 37.640625 27.21875 
Q 31.109375 20.453125 19.1875 8.296875 
z
" id="DejaVuSans-50"/>
       <path d="M 10.796875 72.90625 
L 49.515625 72.90625 
L 49.515625 64.59375 
L 19.828125 64.59375 
L 19.828125 46.734375 
Q 21.96875 47.46875 24.109375 47.828125 
Q 26.265625 48.1875 28.421875 48.1875 
Q 40.625 48.1875 47.75 41.5 
Q 54.890625 34.8125 54.890625 23.390625 
Q 54.890625 11.625 47.5625 5.09375 
Q 40.234375 -1.421875 26.90625 -1.421875 
Q 22.3125 -1.421875 17.546875 -0.640625 
Q 12.796875 0.140625 7.71875 1.703125 
L 7.71875 11.625 
Q 12.109375 9.234375 16.796875 8.0625 
Q 21.484375 6.890625 26.703125 6.890625 
Q 35.15625 6.890625 40.078125 11.328125 
Q 45.015625 15.765625 45.015625 23.390625 
Q 45.015625 31 40.078125 35.4375 
Q 35.15625 39.890625 26.703125 39.890625 
Q 22.75 39.890625 18.8125 39.015625 
Q 14.890625 38.140625 10.796875 36.28125 
z
" id="DejaVuSans-53"/>
      </defs>
      <g transform="translate(108.255974 322.182437)scale(0.1 -0.1)">
       <use xlink:href="#DejaVuSans-50"/>
       <use x="63.623047" xlink:href="#DejaVuSans-53"/>
      </g>
     </g>
    </g>
    <g id="xtick_3">
     <g id="line2d_3">
      <g>
       <use style="stroke:#000000;stroke-width:0.8;" x="155.404221" xlink:href="#m524eb7422e" y="307.584"/>
      </g>
     </g>
     <g id="text_3">
      <!-- 50 -->
      <g transform="translate(149.041721 322.182437)scale(0.1 -0.1)">
       <use xlink:href="#DejaVuSans-53"/>
       <use x="63.623047" xlink:href="#DejaVuSans-48"/>
      </g>
     </g>
    </g>
    <g id="xtick_4">
     <g id="line2d_4">
      <g>
       <use style="stroke:#000000;stroke-width:0.8;" x="196.189968" xlink:href="#m524eb7422e" y="307.584"/>
      </g>
     </g>
     <g id="text_4">
      <!-- 75 -->
      <defs>
       <path d="M 8.203125 72.90625 
L 55.078125 72.90625 
L 55.078125 68.703125 
L 28.609375 0 
L 18.3125 0 
L 43.21875 64.59375 
L 8.203125 64.59375 
z
" id="DejaVuSans-55"/>
      </defs>
      <g transform="translate(189.827468 322.182437)scale(0.1 -0.1)">
       <use xlink:href="#DejaVuSans-55"/>
       <use x="63.623047" xlink:href="#DejaVuSans-53"/>
      </g>
     </g>
    </g>
    <g id="xtick_5">
     <g id="line2d_5">
      <g>
       <use style="stroke:#000000;stroke-width:0.8;" x="236.975715" xlink:href="#m524eb7422e" y="307.584"/>
      </g>
     </g>
     <g id="text_5">
      <!-- 100 -->
      <defs>
       <path d="M 12.40625 8.296875 
L 28.515625 8.296875 
L 28.515625 63.921875 
L 10.984375 60.40625 
L 10.984375 69.390625 
L 28.421875 72.90625 
L 38.28125 72.90625 
L 38.28125 8.296875 
L 54.390625 8.296875 
L 54.390625 0 
L 12.40625 0 
z
" id="DejaVuSans-49"/>
      </defs>
      <g transform="translate(227.431965 322.182437)scale(0.1 -0.1)">
       <use xlink:href="#DejaVuSans-49"/>
       <use x="63.623047" xlink:href="#DejaVuSans-48"/>
       <use x="127.246094" xlink:href="#DejaVuSans-48"/>
      </g>
     </g>
    </g>
    <g id="xtick_6">
     <g id="line2d_6">
      <g>
       <use style="stroke:#000000;stroke-width:0.8;" x="277.761462" xlink:href="#m524eb7422e" y="307.584"/>
      </g>
     </g>
     <g id="text_6">
      <!-- 125 -->
      <g transform="translate(268.217712 322.182437)scale(0.1 -0.1)">
       <use xlink:href="#DejaVuSans-49"/>
       <use x="63.623047" xlink:href="#DejaVuSans-50"/>
       <use x="127.246094" xlink:href="#DejaVuSans-53"/>
      </g>
     </g>
    </g>
    <g id="xtick_7">
     <g id="line2d_7">
      <g>
       <use style="stroke:#000000;stroke-width:0.8;" x="318.547209" xlink:href="#m524eb7422e" y="307.584"/>
      </g>
     </g>
     <g id="text_7">
      <!-- 150 -->
      <g transform="translate(309.003459 322.182437)scale(0.1 -0.1)">
       <use xlink:href="#DejaVuSans-49"/>
       <use x="63.623047" xlink:href="#DejaVuSans-53"/>
       <use x="127.246094" xlink:href="#DejaVuSans-48"/>
      </g>
     </g>
    </g>
    <g id="xtick_8">
     <g id="line2d_8">
      <g>
       <use style="stroke:#000000;stroke-width:0.8;" x="359.332956" xlink:href="#m524eb7422e" y="307.584"/>
      </g>
     </g>
     <g id="text_8">
      <!-- 175 -->
      <g transform="translate(349.789206 322.182437)scale(0.1 -0.1)">
       <use xlink:href="#DejaVuSans-49"/>
       <use x="63.623047" xlink:href="#DejaVuSans-55"/>
       <use x="127.246094" xlink:href="#DejaVuSans-53"/>
      </g>
     </g>
    </g>
    <g id="xtick_9">
     <g id="line2d_9">
      <g>
       <use style="stroke:#000000;stroke-width:0.8;" x="400.118703" xlink:href="#m524eb7422e" y="307.584"/>
      </g>
     </g>
     <g id="text_9">
      <!-- 200 -->
      <g transform="translate(390.574953 322.182437)scale(0.1 -0.1)">
       <use xlink:href="#DejaVuSans-50"/>
       <use x="63.623047" xlink:href="#DejaVuSans-48"/>
       <use x="127.246094" xlink:href="#DejaVuSans-48"/>
      </g>
     </g>
    </g>
   </g>
   <g id="matplotlib.axis_2">
    <g id="ytick_1">
     <g id="line2d_10">
      <defs>
       <path d="M 0 0 
L -3.5 0 
" id="m2887033f53" style="stroke:#000000;stroke-width:0.8;"/>
      </defs>
      <g>
       <use style="stroke:#000000;stroke-width:0.8;" x="57.6" xlink:href="#m2887033f53" y="298.988554"/>
      </g>
     </g>
     <g id="text_10">
      <!-- 0 -->
      <g transform="translate(44.2375 302.787773)scale(0.1 -0.1)">
       <use xlink:href="#DejaVuSans-48"/>
      </g>
     </g>
    </g>
    <g id="ytick_2">
     <g id="line2d_11">
      <g>
       <use style="stroke:#000000;stroke-width:0.8;" x="57.6" xlink:href="#m2887033f53" y="246.076862"/>
      </g>
     </g>
     <g id="text_11">
      <!-- 5 -->
      <g transform="translate(44.2375 249.876081)scale(0.1 -0.1)">
       <use xlink:href="#DejaVuSans-53"/>
      </g>
     </g>
    </g>
    <g id="ytick_3">
     <g id="line2d_12">
      <g>
       <use style="stroke:#000000;stroke-width:0.8;" x="57.6" xlink:href="#m2887033f53" y="193.165171"/>
      </g>
     </g>
     <g id="text_12">
      <!-- 10 -->
      <g transform="translate(37.875 196.96439)scale(0.1 -0.1)">
       <use xlink:href="#DejaVuSans-49"/>
       <use x="63.623047" xlink:href="#DejaVuSans-48"/>
      </g>
     </g>
    </g>
    <g id="ytick_4">
     <g id="line2d_13">
      <g>
       <use style="stroke:#000000;stroke-width:0.8;" x="57.6" xlink:href="#m2887033f53" y="140.253479"/>
      </g>
     </g>
     <g id="text_13">
      <!-- 15 -->
      <g transform="translate(37.875 144.052698)scale(0.1 -0.1)">
       <use xlink:href="#DejaVuSans-49"/>
       <use x="63.623047" xlink:href="#DejaVuSans-53"/>
      </g>
     </g>
    </g>
    <g id="ytick_5">
     <g id="line2d_14">
      <g>
       <use style="stroke:#000000;stroke-width:0.8;" x="57.6" xlink:href="#m2887033f53" y="87.341788"/>
      </g>
     </g>
     <g id="text_14">
      <!-- 20 -->
      <g transform="translate(37.875 91.141007)scale(0.1 -0.1)">
       <use xlink:href="#DejaVuSans-50"/>
       <use x="63.623047" xlink:href="#DejaVuSans-48"/>
      </g>
     </g>
    </g>
   </g>
   <g id="line2d_15">
    <path clip-path="url(#pbf07b8507b)" d="M 73.832727 287.362667 
L 77.095587 288.209443 
L 78.727017 288.602459 
L 81.989877 287.912989 
L 83.621307 288.639285 
L 85.252736 286.925585 
L 86.884166 289.595961 
L 88.515596 289.499655 
L 90.147026 288.9251 
L 91.778456 284.812472 
L 93.409886 287.574922 
L 95.041316 286.096699 
L 96.672746 288.512496 
L 98.304175 284.448774 
L 99.935605 283.803229 
L 101.567035 285.515495 
L 103.198465 288.365488 
L 104.829895 284.176111 
L 106.461325 282.977425 
L 108.092755 287.468586 
L 109.724185 287.226449 
L 111.355614 282.503952 
L 112.987044 286.551605 
L 114.618474 288.765129 
L 116.249904 288.27591 
L 117.881334 288.397172 
L 119.512764 289.247359 
L 121.144194 288.155661 
L 122.775624 285.130789 
L 124.407053 286.450883 
L 126.038483 287.001264 
L 127.669913 288.343454 
L 130.932773 285.935688 
L 132.564203 288.690182 
L 134.195633 286.200367 
L 135.827063 288.529434 
L 137.458492 283.457075 
L 139.089922 283.170636 
L 140.721352 287.723754 
L 142.352782 288.214887 
L 143.984212 277.261448 
L 145.615642 288.579732 
L 147.247072 282.084626 
L 148.878502 288.43846 
L 150.509931 284.498481 
L 152.141361 288.669508 
L 153.772791 288.804718 
L 155.404221 289.189571 
L 157.035651 285.664721 
L 158.667081 282.472522 
L 160.298511 288.650593 
L 161.929941 268.543547 
L 163.56137 287.365137 
L 165.1928 284.152881 
L 166.82423 289.308892 
L 168.45566 286.217208 
L 170.08709 290.061362 
L 171.71852 286.284725 
L 173.34995 288.032992 
L 174.98138 288.736287 
L 176.61281 282.728337 
L 178.244239 287.502659 
L 179.875669 276.889668 
L 181.507099 289.305701 
L 183.138529 285.119346 
L 184.769959 287.515801 
L 186.401389 285.019986 
L 188.032819 289.051237 
L 189.664249 285.346982 
L 191.295678 290.386395 
L 192.927108 287.632195 
L 194.558538 289.231936 
L 196.189968 289.05776 
L 197.821398 272.921179 
L 199.452828 291.226258 
L 201.084258 288.014474 
L 202.715688 291.194043 
L 204.347117 289.667322 
L 205.978547 289.289655 
L 207.609977 285.456339 
L 209.241407 288.385128 
L 210.872837 288.994898 
L 212.504267 290.872496 
L 214.135697 289.950325 
L 215.767127 289.218182 
L 217.398556 286.900123 
L 219.029986 288.101068 
L 220.661416 288.942304 
L 222.292846 290.181762 
L 223.924276 280.936736 
L 225.555706 286.052199 
L 227.187136 282.636521 
L 228.818566 288.524902 
L 230.449995 289.356826 
L 232.081425 288.36574 
L 233.712855 287.923476 
L 235.344285 286.553629 
L 236.975715 290.406743 
L 238.607145 288.045107 
L 240.238575 289.032877 
L 241.870005 289.887093 
L 243.501434 288.201867 
L 245.132864 291.011266 
L 246.764294 291.156372 
L 248.395724 284.17776 
L 250.027154 286.887882 
L 251.658584 288.132788 
L 253.290014 286.412191 
L 254.921444 289.972051 
L 256.552873 288.209674 
L 258.184303 287.350831 
L 259.815733 289.340624 
L 261.447163 286.025221 
L 263.078593 249.698965 
L 264.710023 287.821684 
L 267.972883 289.558717 
L 269.604312 289.757135 
L 271.235742 285.362657 
L 272.867172 287.577553 
L 274.498602 289.263851 
L 276.130032 288.92576 
L 277.761462 287.263247 
L 279.392892 286.311387 
L 281.024322 289.196417 
L 282.655751 286.199273 
L 284.287181 287.306159 
L 285.918611 288.051756 
L 287.550041 289.267249 
L 289.181471 289.359001 
L 290.812901 287.824601 
L 292.444331 288.925177 
L 294.075761 282.846118 
L 295.70719 289.354855 
L 297.33862 285.10888 
L 298.97005 284.771293 
L 300.60148 289.395702 
L 302.23291 283.233645 
L 303.86434 265.576299 
L 305.49577 285.479667 
L 307.1272 288.745558 
L 308.75863 289.301303 
L 310.390059 289.181941 
L 312.021489 288.925288 
L 313.652919 290.308273 
L 315.284349 286.677414 
L 316.915779 257.182858 
L 318.547209 285.071106 
L 320.178639 283.311682 
L 321.810069 286.5038 
L 323.441498 290.818223 
L 325.072928 284.359638 
L 326.704358 283.554675 
L 328.335788 289.884367 
L 329.967218 286.325412 
L 331.598648 285.457737 
L 333.230078 290.646609 
L 334.861508 288.585294 
L 336.492937 288.551906 
L 338.124367 289.063164 
L 339.755797 289.712354 
L 341.387227 293.121406 
L 343.018657 291.699769 
L 344.650087 291.610277 
L 346.281517 288.844132 
L 347.912947 290.143599 
L 349.544376 291.91823 
L 351.175806 291.657369 
L 352.807236 290.95926 
L 354.438666 290.527498 
L 356.070096 287.931951 
L 357.701526 289.229159 
L 359.332956 291.373662 
L 360.964386 290.391927 
L 362.595815 290.201784 
L 364.227245 290.183206 
L 365.858675 293.378909 
L 367.490105 282.737642 
L 369.121535 280.337392 
L 370.752965 291.623138 
L 372.384395 288.055663 
L 374.015825 289.690573 
L 375.647254 291.985253 
L 377.278684 291.65453 
L 378.910114 290.218116 
L 380.541544 289.603603 
L 382.172974 290.619261 
L 383.804404 290.038265 
L 385.435834 291.924194 
L 387.067264 281.760934 
L 388.698693 290.027733 
L 390.330123 289.341717 
L 391.961553 286.835755 
L 393.592983 291.921493 
L 395.224413 290.542089 
L 396.855843 290.460944 
L 398.487273 294.087052 
L 398.487273 294.087052 
" style="fill:none;stroke:#1f77b4;stroke-linecap:square;stroke-width:0.25;"/>
   </g>
   <g id="line2d_16">
    <path clip-path="url(#pbf07b8507b)" d="M 73.832727 285.204273 
L 75.464157 287.015272 
L 77.095587 287.759365 
L 78.727017 287.492046 
L 80.358447 286.035218 
L 81.989877 282.391428 
L 83.621307 284.16842 
L 85.252736 281.990951 
L 86.884166 282.661466 
L 88.515596 285.341894 
L 90.147026 278.373483 
L 91.778456 267.029655 
L 93.409886 265.726256 
L 95.041316 275.554379 
L 96.672746 278.883103 
L 98.304175 275.979648 
L 99.935605 270.839001 
L 101.567035 266.117199 
L 103.198465 275.559575 
L 104.829895 266.912121 
L 106.461325 264.666824 
L 108.092755 274.40778 
L 109.724185 275.075875 
L 111.355614 257.315404 
L 112.987044 273.597391 
L 114.618474 279.851542 
L 116.249904 276.947775 
L 117.881334 279.14409 
L 119.512764 275.932662 
L 121.144194 266.054253 
L 122.775624 270.429854 
L 124.407053 273.300771 
L 126.038483 271.808287 
L 127.669913 273.900745 
L 129.301343 264.977224 
L 130.932773 262.269206 
L 132.564203 275.456525 
L 134.195633 263.066601 
L 135.827063 274.668736 
L 137.458492 269.698305 
L 139.089922 276.499761 
L 140.721352 277.577376 
L 142.352782 273.378089 
L 143.984212 252.156247 
L 145.615642 272.720772 
L 147.247072 271.705894 
L 148.878502 269.01557 
L 150.509931 269.874638 
L 152.141361 276.753681 
L 153.772791 277.691368 
L 155.404221 277.121618 
L 157.035651 262.1936 
L 158.667081 268.20294 
L 160.298511 272.821919 
L 161.929941 262.110593 
L 163.56137 269.732412 
L 166.82423 272.697495 
L 168.45566 281.970847 
L 170.08709 277.509636 
L 171.71852 264.215593 
L 173.34995 272.310567 
L 174.98138 270.702277 
L 176.61281 269.929211 
L 178.244239 266.69837 
L 179.875669 265.626711 
L 181.507099 278.642855 
L 183.138529 261.814113 
L 184.769959 273.373231 
L 186.401389 261.21884 
L 188.032819 276.471337 
L 189.664249 260.632136 
L 191.295678 266.548311 
L 192.927108 264.522689 
L 194.558538 281.317312 
L 196.189968 279.499504 
L 197.821398 254.744519 
L 199.452828 274.170329 
L 201.084258 274.071347 
L 202.715688 281.118553 
L 204.347117 281.795743 
L 205.978547 277.671329 
L 207.609977 259.258302 
L 209.241407 274.176729 
L 210.872837 274.208561 
L 212.504267 279.83409 
L 214.135697 271.423339 
L 215.767127 272.397773 
L 217.398556 264.411426 
L 219.029986 264.764957 
L 220.661416 278.078869 
L 222.292846 277.405211 
L 223.924276 268.451293 
L 225.555706 262.423043 
L 227.187136 247.376531 
L 228.818566 263.876961 
L 230.449995 274.655313 
L 233.712855 261.398975 
L 235.344285 262.72905 
L 236.975715 277.821061 
L 238.607145 273.410915 
L 240.238575 263.795981 
L 241.870005 282.391756 
L 243.501434 271.358437 
L 245.132864 268.964137 
L 246.764294 274.844381 
L 248.395724 260.867852 
L 250.027154 261.366578 
L 251.658584 273.03794 
L 253.290014 265.529989 
L 254.921444 275.819169 
L 256.552873 271.435559 
L 258.184303 279.359188 
L 259.815733 279.616904 
L 261.447163 236.222009 
L 263.078593 248.444137 
L 264.710023 263.743964 
L 266.341453 281.256926 
L 267.972883 274.267494 
L 269.604312 266.783279 
L 271.235742 259.992151 
L 272.867172 264.332398 
L 274.498602 277.092598 
L 276.130032 273.724499 
L 277.761462 268.843936 
L 279.392892 258.159252 
L 281.024322 274.110649 
L 282.655751 258.558729 
L 284.287181 274.951379 
L 285.918611 267.411384 
L 287.550041 273.103125 
L 289.181471 275.914954 
L 290.812901 279.053891 
L 292.444331 268.391076 
L 294.075761 240.388651 
L 295.70719 276.808516 
L 297.33862 239.937396 
L 298.97005 266.568834 
L 300.60148 282.777003 
L 302.23291 269.789238 
L 303.86434 253.665744 
L 305.49577 257.455768 
L 307.1272 267.711289 
L 308.75863 267.783285 
L 310.390059 274.734777 
L 312.021489 273.874967 
L 313.652919 280.313794 
L 315.284349 271.1495 
L 316.915779 246.770662 
L 318.547209 267.100561 
L 320.178639 251.164624 
L 321.810069 254.693392 
L 323.441498 285.633378 
L 325.072928 248.869371 
L 326.704358 251.519104 
L 328.335788 277.142176 
L 329.967218 277.428169 
L 331.598648 255.746061 
L 333.230078 267.671057 
L 334.861508 266.87701 
L 336.492937 265.292938 
L 338.124367 269.424906 
L 339.755797 273.092984 
L 341.387227 285.22299 
L 343.018657 282.427199 
L 344.650087 274.431269 
L 346.281517 276.622675 
L 347.912947 282.564991 
L 349.544376 276.951785 
L 351.175806 285.158869 
L 352.807236 265.723195 
L 354.438666 281.951171 
L 356.070096 262.939375 
L 357.701526 274.474664 
L 359.332956 279.005711 
L 360.964386 264.025134 
L 362.595815 272.339701 
L 364.227245 267.929222 
L 365.858675 265.320298 
L 367.490105 255.38641 
L 369.121535 251.669446 
L 370.752965 273.613788 
L 372.384395 260.527053 
L 374.015825 270.615075 
L 375.647254 279.189268 
L 377.278684 279.222968 
L 378.910114 276.340233 
L 380.541544 264.616906 
L 382.172974 271.596592 
L 383.804404 270.545511 
L 385.435834 278.703653 
L 387.067264 243.216698 
L 388.698693 278.837879 
L 390.330123 277.055748 
L 391.961553 260.690079 
L 393.592983 281.995714 
L 395.224413 270.930086 
L 396.855843 266.451269 
L 398.487273 273.858781 
L 398.487273 273.858781 
" style="fill:none;stroke:#2ca02c;stroke-linecap:square;stroke-width:0.75;"/>
   </g>
   <g id="patch_3">
    <path d="M 57.6 307.584 
L 57.6 41.472 
" style="fill:none;stroke:#000000;stroke-linecap:square;stroke-linejoin:miter;stroke-width:0.8;"/>
   </g>
   <g id="patch_4">
    <path d="M 414.72 307.584 
L 414.72 41.472 
" style="fill:none;stroke:#000000;stroke-linecap:square;stroke-linejoin:miter;stroke-width:0.8;"/>
   </g>
   <g id="patch_5">
    <path d="M 57.6 307.584 
L 414.72 307.584 
" style="fill:none;stroke:#000000;stroke-linecap:square;stroke-linejoin:miter;stroke-width:0.8;"/>
   </g>
   <g id="patch_6">
    <path d="M 57.6 41.472 
L 414.72 41.472 
" style="fill:none;stroke:#000000;stroke-linecap:square;stroke-linejoin:miter;stroke-width:0.8;"/>
   </g>
   <g id="legend_1">
    <g id="patch_7">
     <path d="M 338.234063 78.82825 
L 407.72 78.82825 
Q 409.72 78.82825 409.72 76.82825 
L 409.72 48.472 
Q 409.72 46.472 407.72 46.472 
L 338.234063 46.472 
Q 336.234063 46.472 336.234063 48.472 
L 336.234063 76.82825 
Q 336.234063 78.82825 338.234063 78.82825 
z
" style="fill:#ffffff;opacity:0.8;stroke:#cccccc;stroke-linejoin:miter;"/>
    </g>
    <g id="line2d_17">
     <path d="M 340.234063 54.570437 
L 360.234063 54.570437 
" style="fill:none;stroke:#1f77b4;stroke-linecap:square;stroke-width:0.25;"/>
    </g>
    <g id="line2d_18"/>
    <g id="text_15">
     <!-- median -->
     <defs>
      <path d="M 52 44.1875 
Q 55.375 50.25 60.0625 53.125 
Q 64.75 56 71.09375 56 
Q 79.640625 56 84.28125 50.015625 
Q 88.921875 44.046875 88.921875 33.015625 
L 88.921875 0 
L 79.890625 0 
L 79.890625 32.71875 
Q 79.890625 40.578125 77.09375 44.375 
Q 74.3125 48.1875 68.609375 48.1875 
Q 61.625 48.1875 57.5625 43.546875 
Q 53.515625 38.921875 53.515625 30.90625 
L 53.515625 0 
L 44.484375 0 
L 44.484375 32.71875 
Q 44.484375 40.625 41.703125 44.40625 
Q 38.921875 48.1875 33.109375 48.1875 
Q 26.21875 48.1875 22.15625 43.53125 
Q 18.109375 38.875 18.109375 30.90625 
L 18.109375 0 
L 9.078125 0 
L 9.078125 54.6875 
L 18.109375 54.6875 
L 18.109375 46.1875 
Q 21.1875 51.21875 25.484375 53.609375 
Q 29.78125 56 35.6875 56 
Q 41.65625 56 45.828125 52.96875 
Q 50 49.953125 52 44.1875 
z
" id="DejaVuSans-109"/>
      <path d="M 56.203125 29.59375 
L 56.203125 25.203125 
L 14.890625 25.203125 
Q 15.484375 15.921875 20.484375 11.0625 
Q 25.484375 6.203125 34.421875 6.203125 
Q 39.59375 6.203125 44.453125 7.46875 
Q 49.3125 8.734375 54.109375 11.28125 
L 54.109375 2.78125 
Q 49.265625 0.734375 44.1875 -0.34375 
Q 39.109375 -1.421875 33.890625 -1.421875 
Q 20.796875 -1.421875 13.15625 6.1875 
Q 5.515625 13.8125 5.515625 26.8125 
Q 5.515625 40.234375 12.765625 48.109375 
Q 20.015625 56 32.328125 56 
Q 43.359375 56 49.78125 48.890625 
Q 56.203125 41.796875 56.203125 29.59375 
z
M 47.21875 32.234375 
Q 47.125 39.59375 43.09375 43.984375 
Q 39.0625 48.390625 32.421875 48.390625 
Q 24.90625 48.390625 20.390625 44.140625 
Q 15.875 39.890625 15.1875 32.171875 
z
" id="DejaVuSans-101"/>
      <path d="M 45.40625 46.390625 
L 45.40625 75.984375 
L 54.390625 75.984375 
L 54.390625 0 
L 45.40625 0 
L 45.40625 8.203125 
Q 42.578125 3.328125 38.25 0.953125 
Q 33.9375 -1.421875 27.875 -1.421875 
Q 17.96875 -1.421875 11.734375 6.484375 
Q 5.515625 14.40625 5.515625 27.296875 
Q 5.515625 40.1875 11.734375 48.09375 
Q 17.96875 56 27.875 56 
Q 33.9375 56 38.25 53.625 
Q 42.578125 51.265625 45.40625 46.390625 
z
M 14.796875 27.296875 
Q 14.796875 17.390625 18.875 11.75 
Q 22.953125 6.109375 30.078125 6.109375 
Q 37.203125 6.109375 41.296875 11.75 
Q 45.40625 17.390625 45.40625 27.296875 
Q 45.40625 37.203125 41.296875 42.84375 
Q 37.203125 48.484375 30.078125 48.484375 
Q 22.953125 48.484375 18.875 42.84375 
Q 14.796875 37.203125 14.796875 27.296875 
z
" id="DejaVuSans-100"/>
      <path d="M 9.421875 54.6875 
L 18.40625 54.6875 
L 18.40625 0 
L 9.421875 0 
z
M 9.421875 75.984375 
L 18.40625 75.984375 
L 18.40625 64.59375 
L 9.421875 64.59375 
z
" id="DejaVuSans-105"/>
      <path d="M 34.28125 27.484375 
Q 23.390625 27.484375 19.1875 25 
Q 14.984375 22.515625 14.984375 16.5 
Q 14.984375 11.71875 18.140625 8.90625 
Q 21.296875 6.109375 26.703125 6.109375 
Q 34.1875 6.109375 38.703125 11.40625 
Q 43.21875 16.703125 43.21875 25.484375 
L 43.21875 27.484375 
z
M 52.203125 31.203125 
L 52.203125 0 
L 43.21875 0 
L 43.21875 8.296875 
Q 40.140625 3.328125 35.546875 0.953125 
Q 30.953125 -1.421875 24.3125 -1.421875 
Q 15.921875 -1.421875 10.953125 3.296875 
Q 6 8.015625 6 15.921875 
Q 6 25.140625 12.171875 29.828125 
Q 18.359375 34.515625 30.609375 34.515625 
L 43.21875 34.515625 
L 43.21875 35.40625 
Q 43.21875 41.609375 39.140625 45 
Q 35.0625 48.390625 27.6875 48.390625 
Q 23 48.390625 18.546875 47.265625 
Q 14.109375 46.140625 10.015625 43.890625 
L 10.015625 52.203125 
Q 14.9375 54.109375 19.578125 55.046875 
Q 24.21875 56 28.609375 56 
Q 40.484375 56 46.34375 49.84375 
Q 52.203125 43.703125 52.203125 31.203125 
z
" id="DejaVuSans-97"/>
      <path d="M 54.890625 33.015625 
L 54.890625 0 
L 45.90625 0 
L 45.90625 32.71875 
Q 45.90625 40.484375 42.875 44.328125 
Q 39.84375 48.1875 33.796875 48.1875 
Q 26.515625 48.1875 22.3125 43.546875 
Q 18.109375 38.921875 18.109375 30.90625 
L 18.109375 0 
L 9.078125 0 
L 9.078125 54.6875 
L 18.109375 54.6875 
L 18.109375 46.1875 
Q 21.34375 51.125 25.703125 53.5625 
Q 30.078125 56 35.796875 56 
Q 45.21875 56 50.046875 50.171875 
Q 54.890625 44.34375 54.890625 33.015625 
z
" id="DejaVuSans-110"/>
     </defs>
     <g transform="translate(368.234063 58.070437)scale(0.1 -0.1)">
      <use xlink:href="#DejaVuSans-109"/>
      <use x="97.412109" xlink:href="#DejaVuSans-101"/>
      <use x="158.935547" xlink:href="#DejaVuSans-100"/>
      <use x="222.412109" xlink:href="#DejaVuSans-105"/>
      <use x="250.195312" xlink:href="#DejaVuSans-97"/>
      <use x="311.474609" xlink:href="#DejaVuSans-110"/>
     </g>
    </g>
    <g id="line2d_19">
     <path d="M 340.234063 69.248562 
L 360.234063 69.248562 
" style="fill:none;stroke:#2ca02c;stroke-linecap:square;stroke-width:0.75;"/>
    </g>
    <g id="line2d_20"/>
    <g id="text_16">
     <!-- mean -->
     <g transform="translate(368.234063 72.748562)scale(0.1 -0.1)">
      <use xlink:href="#DejaVuSans-109"/>
      <use x="97.412109" xlink:href="#DejaVuSans-101"/>
      <use x="158.935547" xlink:href="#DejaVuSans-97"/>
      <use x="220.214844" xlink:href="#DejaVuSans-110"/>
     </g>
    </g>
   </g>
  </g>
  <g id="text_17">
   <!-- log_loss.mean over generations -->
   <defs>
    <path d="M 9.421875 75.984375 
L 18.40625 75.984375 
L 18.40625 0 
L 9.421875 0 
z
" id="DejaVuSans-108"/>
    <path d="M 30.609375 48.390625 
Q 23.390625 48.390625 19.1875 42.75 
Q 14.984375 37.109375 14.984375 27.296875 
Q 14.984375 17.484375 19.15625 11.84375 
Q 23.34375 6.203125 30.609375 6.203125 
Q 37.796875 6.203125 41.984375 11.859375 
Q 46.1875 17.53125 46.1875 27.296875 
Q 46.1875 37.015625 41.984375 42.703125 
Q 37.796875 48.390625 30.609375 48.390625 
z
M 30.609375 56 
Q 42.328125 56 49.015625 48.375 
Q 55.71875 40.765625 55.71875 27.296875 
Q 55.71875 13.875 49.015625 6.21875 
Q 42.328125 -1.421875 30.609375 -1.421875 
Q 18.84375 -1.421875 12.171875 6.21875 
Q 5.515625 13.875 5.515625 27.296875 
Q 5.515625 40.765625 12.171875 48.375 
Q 18.84375 56 30.609375 56 
z
" id="DejaVuSans-111"/>
    <path d="M 45.40625 27.984375 
Q 45.40625 37.75 41.375 43.109375 
Q 37.359375 48.484375 30.078125 48.484375 
Q 22.859375 48.484375 18.828125 43.109375 
Q 14.796875 37.75 14.796875 27.984375 
Q 14.796875 18.265625 18.828125 12.890625 
Q 22.859375 7.515625 30.078125 7.515625 
Q 37.359375 7.515625 41.375 12.890625 
Q 45.40625 18.265625 45.40625 27.984375 
z
M 54.390625 6.78125 
Q 54.390625 -7.171875 48.1875 -13.984375 
Q 42 -20.796875 29.203125 -20.796875 
Q 24.46875 -20.796875 20.265625 -20.09375 
Q 16.0625 -19.390625 12.109375 -17.921875 
L 12.109375 -9.1875 
Q 16.0625 -11.328125 19.921875 -12.34375 
Q 23.78125 -13.375 27.78125 -13.375 
Q 36.625 -13.375 41.015625 -8.765625 
Q 45.40625 -4.15625 45.40625 5.171875 
L 45.40625 9.625 
Q 42.625 4.78125 38.28125 2.390625 
Q 33.9375 0 27.875 0 
Q 17.828125 0 11.671875 7.65625 
Q 5.515625 15.328125 5.515625 27.984375 
Q 5.515625 40.671875 11.671875 48.328125 
Q 17.828125 56 27.875 56 
Q 33.9375 56 38.28125 53.609375 
Q 42.625 51.21875 45.40625 46.390625 
L 45.40625 54.6875 
L 54.390625 54.6875 
z
" id="DejaVuSans-103"/>
    <path d="M 50.984375 -16.609375 
L 50.984375 -23.578125 
L -0.984375 -23.578125 
L -0.984375 -16.609375 
z
" id="DejaVuSans-95"/>
    <path d="M 44.28125 53.078125 
L 44.28125 44.578125 
Q 40.484375 46.53125 36.375 47.5 
Q 32.28125 48.484375 27.875 48.484375 
Q 21.1875 48.484375 17.84375 46.4375 
Q 14.5 44.390625 14.5 40.28125 
Q 14.5 37.15625 16.890625 35.375 
Q 19.28125 33.59375 26.515625 31.984375 
L 29.59375 31.296875 
Q 39.15625 29.25 43.1875 25.515625 
Q 47.21875 21.78125 47.21875 15.09375 
Q 47.21875 7.46875 41.1875 3.015625 
Q 35.15625 -1.421875 24.609375 -1.421875 
Q 20.21875 -1.421875 15.453125 -0.5625 
Q 10.6875 0.296875 5.421875 2 
L 5.421875 11.28125 
Q 10.40625 8.6875 15.234375 7.390625 
Q 20.0625 6.109375 24.8125 6.109375 
Q 31.15625 6.109375 34.5625 8.28125 
Q 37.984375 10.453125 37.984375 14.40625 
Q 37.984375 18.0625 35.515625 20.015625 
Q 33.0625 21.96875 24.703125 23.78125 
L 21.578125 24.515625 
Q 13.234375 26.265625 9.515625 29.90625 
Q 5.8125 33.546875 5.8125 39.890625 
Q 5.8125 47.609375 11.28125 51.796875 
Q 16.75 56 26.8125 56 
Q 31.78125 56 36.171875 55.265625 
Q 40.578125 54.546875 44.28125 53.078125 
z
" id="DejaVuSans-115"/>
    <path d="M 10.6875 12.40625 
L 21 12.40625 
L 21 0 
L 10.6875 0 
z
" id="DejaVuSans-46"/>
    <path id="DejaVuSans-32"/>
    <path d="M 2.984375 54.6875 
L 12.5 54.6875 
L 29.59375 8.796875 
L 46.6875 54.6875 
L 56.203125 54.6875 
L 35.6875 0 
L 23.484375 0 
z
" id="DejaVuSans-118"/>
    <path d="M 41.109375 46.296875 
Q 39.59375 47.171875 37.8125 47.578125 
Q 36.03125 48 33.890625 48 
Q 26.265625 48 22.1875 43.046875 
Q 18.109375 38.09375 18.109375 28.8125 
L 18.109375 0 
L 9.078125 0 
L 9.078125 54.6875 
L 18.109375 54.6875 
L 18.109375 46.1875 
Q 20.953125 51.171875 25.484375 53.578125 
Q 30.03125 56 36.53125 56 
Q 37.453125 56 38.578125 55.875 
Q 39.703125 55.765625 41.0625 55.515625 
z
" id="DejaVuSans-114"/>
    <path d="M 18.3125 70.21875 
L 18.3125 54.6875 
L 36.8125 54.6875 
L 36.8125 47.703125 
L 18.3125 47.703125 
L 18.3125 18.015625 
Q 18.3125 11.328125 20.140625 9.421875 
Q 21.96875 7.515625 27.59375 7.515625 
L 36.8125 7.515625 
L 36.8125 0 
L 27.59375 0 
Q 17.1875 0 13.234375 3.875 
Q 9.28125 7.765625 9.28125 18.015625 
L 9.28125 47.703125 
L 2.6875 47.703125 
L 2.6875 54.6875 
L 9.28125 54.6875 
L 9.28125 70.21875 
z
" id="DejaVuSans-116"/>
   </defs>
   <g transform="translate(134.789062 16.030125)scale(0.12 -0.12)">
    <use xlink:href="#DejaVuSans-108"/>
    <use x="27.783203" xlink:href="#DejaVuSans-111"/>
    <use x="88.964844" xlink:href="#DejaVuSans-103"/>
    <use x="152.441406" xlink:href="#DejaVuSans-95"/>
    <use x="202.441406" xlink:href="#DejaVuSans-108"/>
    <use x="230.224609" xlink:href="#DejaVuSans-111"/>
    <use x="291.40625" xlink:href="#DejaVuSans-115"/>
    <use x="343.505859" xlink:href="#DejaVuSans-115"/>
    <use x="395.605469" xlink:href="#DejaVuSans-46"/>
    <use x="427.392578" xlink:href="#DejaVuSans-109"/>
    <use x="524.804688" xlink:href="#DejaVuSans-101"/>
    <use x="586.328125" xlink:href="#DejaVuSans-97"/>
    <use x="647.607422" xlink:href="#DejaVuSans-110"/>
    <use x="710.986328" xlink:href="#DejaVuSans-32"/>
    <use x="742.773438" xlink:href="#DejaVuSans-111"/>
    <use x="803.955078" xlink:href="#DejaVuSans-118"/>
    <use x="863.134766" xlink:href="#DejaVuSans-101"/>
    <use x="924.658203" xlink:href="#DejaVuSans-114"/>
    <use x="965.771484" xlink:href="#DejaVuSans-32"/>
    <use x="997.558594" xlink:href="#DejaVuSans-103"/>
    <use x="1061.035156" xlink:href="#DejaVuSans-101"/>
    <use x="1122.558594" xlink:href="#DejaVuSans-110"/>
    <use x="1185.9375" xlink:href="#DejaVuSans-101"/>
    <use x="1247.460938" xlink:href="#DejaVuSans-114"/>
    <use x="1288.574219" xlink:href="#DejaVuSans-97"/>
    <use x="1349.853516" xlink:href="#DejaVuSans-116"/>
    <use x="1389.0625" xlink:href="#DejaVuSans-105"/>
    <use x="1416.845703" xlink:href="#DejaVuSans-111"/>
    <use x="1478.027344" xlink:href="#DejaVuSans-110"/>
    <use x="1541.40625" xlink:href="#DejaVuSans-115"/>
   </g>
  </g>
 </g>
 <defs>
  <clipPath id="pbf07b8507b">
   <rect height="266.112" width="357.12" x="57.6" y="41.472"/>
  </clipPath>
 </defs>
</svg>
